<?xml version="1.0" encoding="utf-8"?>
<!-- Generator: Adobe Illustrator 17.0.0, SVG Export Plug-In . SVG Version: 6.00 Build 0)  -->
<!DOCTYPE svg PUBLIC "-//W3C//DTD SVG 1.1//EN" "http://www.w3.org/Graphics/SVG/1.1/DTD/svg11.dtd">
<svg version="1.1" id="Layer_1" xmlns="http://www.w3.org/2000/svg" xmlns:xlink="http://www.w3.org/1999/xlink" x="0px" y="0px"
	 width="200px" height="200px" viewBox="0 0 200 200" enable-background="new 0 0 200 200" xml:space="preserve">
<g id="GwDENC.tif_1_">
	<g>
		<path fill="#810000" d="M89.232,41.246c7.915,0,15.831,0,23.746,0c0.428,0.409,0.808,0.885,1.29,1.214
			c2.506,1.712,3.606,3.916,3.532,7.086c-0.141,5.998,0.141,12.006,0.27,18.01c0.007,0.31,0.156,0.657,0.34,0.916
			c0.514,0.725,1.175,1.36,1.604,2.127c0.656,1.173,1.166,2.428,1.763,3.698c0.139-0.092,0.344-0.15,0.405-0.278
			c0.599-1.261,1.178-2.533,1.756-3.804c2.561-5.635,4.782-6.23,10.02-2.911c1.534,0.972,1.828,2.334,1.419,3.702
			c-0.148,0.494-1.73,0.796-2.652,0.781c-4.704-0.074-4.735-0.132-6.368,4.315c-0.369,1.006-0.47,2.12-0.61,3.195
			c-0.044,0.333,0.189,0.701,0.322,1.14c1.208-1.279,2.271-2.402,3.333-3.527c0.231,0.104,0.462,0.208,0.693,0.312
			c-0.303,1.745-0.605,3.491-0.908,5.236c0.8-0.567,1.376-1.287,1.767-2.097c0.474-0.979,0.681-2.095,1.202-3.042
			c0.814-1.478,2.018-2.384,4.33-1.789c-0.989,1.54-1.857,2.89-2.601,4.049c0.831,0.449,2.154,0.906,2.118,1.192
			c-0.108,0.858-0.581,1.824-1.218,2.424c-0.912,0.861-2.089,1.446-3.165,2.13c-0.78,0.497-1.578,0.965-2.368,1.445
			c0.056,0.15,0.113,0.3,0.168,0.45c1.611,0,3.264,0.229,4.821-0.061c1.739-0.324,3.848-0.654,5.002-1.789
			c5.214-5.124,5.945-8.091,1.677-13.304c-0.115-0.141-0.204-0.308-0.335-0.432c-1.001-0.952-0.675-1.806,0.161-2.654
			c1.128-1.144,2.438-1.218,3.612-0.293c0.876,0.69,1.725,1.617,2.163,2.622c2.08,4.777,3.274,9.588-0.332,14.274
			c-0.571,0.742-0.963,1.62-1.502,2.544c1.604,0.596,2.959,1.1,4.402,1.637c-0.246,0.303-0.433,0.533-0.691,0.849
			c0.842,0.414,1.577,0.775,2.373,1.166c-0.64,0.297-1.146,0.532-1.983,0.919c2.25,0.793,1.668,2.502,1.597,3.795
			c-0.099,1.784,0.471,2.824,2.243,2.801c6.753-0.09,13.506-0.216,20.259-0.327c0,0.121,0,0.244,0,0.365
			c-0.375,0.946-0.796,1.878-1.118,2.842c-1.27,3.796-3.692,6.498-7.399,8.074c-2.591,1.102-2.914,2.818-1.225,5.085
			c1.483,1.99,2.832,4.084,4.165,6.18c0.313,0.492,0.321,1.178,0.606,2.32c-1.476-0.677-2.457-1.094-3.406-1.57
			c-1.652-0.83-2.664-0.347-2.615,1.488c0.025,0.948,0.515,1.932,0.97,2.809c0.583,1.125,1.474,2.099,2.003,3.243
			c1.702,3.684,0.754,7.447-2.217,9.986c-0.471,0.403-0.73,1.522-0.54,2.145c0.546,1.795,1.48,3.47,2.059,5.258
			c0.63,1.946,1.454,3.965,1.458,5.954c0.015,5.778-0.331,11.558-0.551,17.337c-0.062,1.635-0.175,3.268-0.265,4.902
			c-0.093-0.003-0.186-0.008-0.278-0.011c-0.316-0.824-0.632-1.647-1.117-2.911c-0.34,1.238-0.561,2.04-0.807,2.932
			c-0.361-0.43-0.616-0.734-0.758-0.904c-0.613,0.814-1.186,1.573-1.969,2.614c-0.329-1.119-0.494-1.68-0.77-2.618
			c-0.387,0.914-0.629,1.488-0.883,2.086c-0.274-0.316-0.508-0.586-0.946-1.091c-0.106,1.243-0.184,2.149-0.263,3.055
			c-0.09,0.004-0.18,0.009-0.27,0.014c-0.409-1.126-0.817-2.253-1.346-3.711c-0.491,1.061-0.803,1.737-1.273,2.753
			c-0.157-3.102-0.442-5.813-0.402-8.519c0.091-6.254,0.275-12.509,0.561-18.757c0.09-1.972,1.311-3.494,2.888-4.676
			c2.001-1.502,2.355-2.896,1.141-5.124c-0.488-0.896-1.172-1.701-1.856-2.47c-3.212-3.612-2.907-8.175,0.828-11.126
			c1.494-1.18,1.947-2.545,1.16-4.296c-1.556,0.381-3.076,0.753-4.594,1.124c-0.116-0.188-0.233-0.375-0.349-0.563
			c0.753-1.358,1.413-2.78,2.285-4.057c0.992-1.454,2.343-2.68,3.208-4.194c0.516-0.903,0.499-2.17,0.466-3.265
			c-0.005-0.174-1.364-0.413-2.102-0.437c-1.886-0.061-3.774-0.017-5.661-0.017c-2.294,0.001-4.588,0-7.112,0
			c0.328,2.258-0.471,3.736-2.067,4.952c-0.677,0.515-1.17,1.452-1.412,2.293c-0.173,0.598-0.03,1.68,0.388,1.995
			c4.161,3.131,5.943,7.641,6.475,12.442c0.491,4.43,0.234,8.993-0.161,13.457c-0.523,5.903-2.488,11.466-7.122,15.367
			c-3.309,2.787-7.22,4.894-10.993,7.079c-1.522,0.882-2.038,1.744-1.679,3.44c0.636,2.993,0.05,5.907-0.849,8.763
			c-0.183,0.033-0.367,0.066-0.551,0.099c-0.388-1.694-0.777-3.388-1.171-5.104c-0.153-0.041-0.326-0.127-0.499-0.127
			c-15.827-0.012-31.655-0.011-47.482-0.039c-1.062-0.002-1.307,0.506-1.424,1.428c-0.158,1.245-0.482,2.468-0.734,3.701
			c-1.493-2.614-1.433-5.266-1.305-7.937c0.211-4.388,0.271-4.715-3.972-5.718c-6.028-1.426-9.857-5.426-12.952-10.246
			c-4.33-6.745-4.995-14.382-4.376-22.149c0.415-5.213,2.556-9.715,6.371-13.377c1.929-1.852,1.911-2.39,0.028-4.395
			c-0.332-0.354-0.67-0.746-1.088-0.966c-1.358-0.716-1.873-1.786-1.607-3.283c0.265-1.493-0.485-1.877-1.862-1.852
			c-4.078,0.076-8.159,0.101-12.237,0.049c-1.368-0.017-1.887,0.709-1.598,1.772c0.416,1.538,0.9,3.188,1.839,4.423
			c1.234,1.622,3.012,2.816,4.416,4.324c1.278,1.372,0.918,2.235-0.867,2.672c-1.014,0.249-1.713,0.051-2.32-0.883
			c-0.258-0.396-1.151-0.808-1.463-0.646c-0.553,0.285-1.103,0.947-1.255,1.552c-0.284,1.124,0.206,1.891,1.437,2.316
			c2.954,1.018,4.221,3.281,4.313,6.32c0.086,2.843-0.94,5.226-2.888,7.249c-1.547,1.607-1.471,4.608,0.363,5.912
			c2.676,1.903,3.866,4.521,3.96,7.641c0.218,7.3,0.313,14.603,0.45,21.905c0.008,0.428-0.052,0.857-0.079,1.287
			c-0.079-0.003-0.157-0.006-0.236-0.009c-0.313-0.89-0.628-1.78-1.117-3.169c-0.441,1.537-0.748,2.612-1.199,4.184
			c-0.329-1.661-0.54-2.731-0.752-3.799c-0.12,0.008-0.24,0.016-0.361,0.024c-0.265,0.656-0.529,1.31-0.872,2.161
			c-0.253-0.754-0.446-1.329-0.736-2.191c-0.372,0.907-0.618,1.506-0.863,2.105c-0.064-0.125-0.127-0.25-0.191-0.374
			c-0.416,0.172-0.832,0.343-1.29,0.533c-0.236-0.774-0.469-1.542-0.78-2.567c-0.364,0.689-0.574,1.086-0.849,1.605
			c-0.203-0.8-0.357-1.412-0.512-2.025c-0.12,0-0.241-0.001-0.361-0.001c-0.299,0.912-0.597,1.825-1.052,3.216
			c-0.492-7.999-0.987-15.467-1.376-22.941c-0.06-1.163,0.23-2.396,0.598-3.519c0.739-2.251,1.648-4.446,2.478-6.667
			c0.513-1.375,0.688-2.559-1.158-3.169c-0.615-0.203-1.139-0.907-1.543-1.494c-2.091-3.038-1.561-7.905,0.814-10.73
			c0.757-0.9,1.168-2.394,1.125-3.593c-0.064-1.784-1.392-2.26-3.048-1.454c-0.924,0.45-1.898,0.793-2.85,1.185
			c-0.189-0.224-0.378-0.448-0.567-0.672c1.228-1.674,2.578-3.273,3.651-5.041c1.113-1.834,2.053-3.79,2.875-5.775
			c0.375-0.906-0.018-1.757-1.225-1.996c-6.18-1.22-9.367-5.135-10.115-11.438c0.666,0,1.264,0,1.863,0
			c6.088-0.004,12.177-0.008,18.265-0.015c0.547-0.001,1.107,0.043,1.641-0.049c1.338-0.23,1.806-1.662,1.042-2.531
			c0.429-1.345,0.822-2.58,1.235-3.876c-0.339-0.301-0.748-0.665-1.333-1.186c1.225-0.189,2.183-0.335,3.489-0.536
			c-0.755-0.564-1.164-0.87-1.817-1.357c1.76-0.498,3.267-0.926,5.226-1.481c-2.833-2.001-4.276-4.368-4.584-7.39
			c-0.423-4.149-0.404-8.198,2.683-11.503c1.38-1.478,2.871-1.452,4.346-0.248c1.713,1.399,0.113,2.247-0.515,3.13
			c-3,4.211-2.957,6.895,0.334,10.835c0.506,0.606,1.049,1.186,1.613,1.739c2.185,2.14,7.219,2.929,10.113,1.609
			c-2.176-1.954-6.164-2.176-6.418-6.37c0.963,0.106,1.556,0.171,2.656,0.292c-1.345-1.647-2.349-2.876-3.378-4.137
			c2.125-1.072,3.577-0.519,4.316,1.561c0.94,2.646,2.339,4.854,5.459,6.236c-0.885-1.585-1.653-2.735-2.177-3.987
			c-0.307-0.734-0.227-1.631-0.32-2.454c0.661,0.49,1.364,0.934,1.969,1.485c0.449,0.408,0.771,0.953,1.15,1.438
			c0.177-0.07,0.354-0.139,0.531-0.209c0.135-3.088,0.476-6.244-1.36-9.037c-0.388-0.59-1.662-0.89-2.491-0.829
			c-1.15,0.086-2.265,0.64-3.386,0.99c-0.746-1.706-1.036-3.222,0.361-4.661c1.843-1.895,4.207-1.366,6.367-1.232
			c0.568,0.035,1.137,1.617,1.531,2.561c0.68,1.625,1.209,3.314,1.833,4.964c0.374,0.988,0.808,1.953,1.32,3.181
			c0.554-2.201,1.016-4.031,1.482-5.882c0.439,0.178,0.778,0.315,1.095,0.443c1.509-3.612,1.929-7.241,1.808-10.986
			c-0.097-2.979,0.127-5.971-0.006-8.948C82.84,46.153,84.386,42.672,89.232,41.246z M90.417,77.184
			c3.24,0.485,6.457,1.366,9.664,1.333c3.269-0.034,6.529-0.968,10.163-1.57c-3.054-2.376-3.652-5.824-4.16-9.188
			c1.49-0.306,3.194-0.657,4.929-1.014c0.284-1.235,0.558-2.427,0.828-3.604c0.414,0.357,1.006,0.868,1.854,1.6
			c0-4.759,0.128-9.13-0.052-13.488c-0.097-2.347-1.362-3.63-3.105-3.625c-7,0.017-13.999,0.112-21,0.165
			c-1.69,0.013-2.381,0.973-2.505,2.518c-0.097,1.211-0.258,2.422-0.271,3.634c-0.038,3.376-0.013,6.753-0.013,10.383
			c0.89-0.567,1.5-0.957,2.079-1.325c0.106,1.357,0.199,2.566,0.288,3.708c1.039,0.063,1.893,0.113,2.747,0.165
			c-0.025,0.046-0.05,0.093-0.075,0.139c1,0.332,2.002,0.663,2.879,0.954c-0.291,0.938-1.088,2.176-0.753,2.725
			c0.583,0.957,0.25,1.474-0.193,2.089C92.641,74.285,91.503,75.745,90.417,77.184z M70.01,163.62
			c20.597,2.505,41.066,4,62.136-0.495c-4.058-3.545-5.083-7.788-5.282-12.413c-3.58,0-6.918,0-10.257,0
			c-0.744,0-1.675-0.042-1.398,1.047c0.112,0.439,0.919,0.958,1.439,0.991c1.862,0.12,3.737,0.047,5.687,0.047
			c0,3.4,0,6.581,0,9.935c-5.832,0-11.541,0.013-17.249-0.036c-0.323-0.003-0.913-0.512-0.92-0.797
			c-0.068-2.962-0.042-5.926-0.042-9.098c2.21,0,4.189,0,6.154,0c0.45-1.423,0.308-2.12-1.258-2.106
			c-5.781,0.052-11.562-0.002-17.343,0.063c-0.461,0.005-1.205,0.527-1.316,0.944c-0.283,1.058,0.56,1.11,1.348,1.102
			c1.55-0.015,3.1-0.004,4.602-0.004c0,3.484,0,6.617,0,9.794c-5.935,0-11.734,0-17.541,0c0-3.296,0-6.436,0-9.793
			c2.157,0,4.212,0.052,6.26-0.044c0.413-0.019,0.801-0.601,1.199-0.924c-0.41-0.371-0.811-1.051-1.233-1.064
			c-2.979-0.093-5.963-0.094-8.943-0.003c-0.473,0.015-1.295,0.603-1.336,0.993C74.261,156.083,73.033,160.079,70.01,163.62z
			 M110.432,132.132c-6.728,0-13.364,0-19.978,0c0,1.01,0,1.82,0,2.728c2.141,0,4.121,0,5.975,0c0,3.359,0,6.602,0,10.066
			c-2.161,0-4.073,0-6.005,0c0,0.868,0,1.5,0,2.21c6.722,0,13.316,0,19.989,0c0-0.766,0-1.402,0-2.32c-2.115,0-4.136,0-6.18,0
			c0-3.421,0-6.558,0-9.968c2.148,0,4.178,0,6.201,0C110.432,133.796,110.432,133.018,110.432,132.132z M115.226,147.26
			c3.686,0,7.201,0.036,10.714-0.048c0.406-0.01,1.024-0.613,1.156-1.055c0.625-2.101,1.955-3.641,3.691-4.837
			c1.173-0.808,2.469-1.436,3.809-2.201c-1.043-1.109-2.37-1.999-2.958-3.24c-1.721-3.632-4.555-4.326-8.195-3.976
			c-2.692,0.259-5.43,0.051-8.163,0.051c0,1.142,0,1.955,0,2.92c2.532,0,4.926,0,7.148,0c0,3.399,0,6.637,0,10.077
			c-2.567,0-4.847,0-7.201,0C115.226,145.753,115.226,146.344,115.226,147.26z M78.574,144.86c0-3.462,0-6.642,0-10.115
			c2.155,0,4.216-0.022,6.275,0.01c0.988,0.015,1.416-0.351,1.423-1.388c0.007-1.031-0.381-1.395-1.392-1.388
			c-4.136,0.031-8.272-0.008-12.408,0.044c-0.435,0.005-1.074,0.321-1.262,0.68c-1.253,2.378-2.409,4.807-3.639,7.309
			c3.413,0.651,5.475,3.208,6.968,6.451c0.195,0.423,1.041,0.754,1.594,0.768c2.856,0.076,5.716,0.026,8.575,0.041
			c0.85,0.004,1.559,0.001,1.558-1.195c-0.002-1.17-0.666-1.234-1.54-1.223C82.791,144.877,80.855,144.86,78.574,144.86z
			 M67.218,119.703c1.286,2.604,2.409,4.999,3.667,7.321c0.244,0.449,1.007,0.842,1.547,0.865c2.247,0.097,4.501,0.044,6.753,0.045
			c2.288,0.001,4.576,0,6.829,0c0.536-1.824,0.087-2.538-1.64-2.408c-1.392,0.105-2.798,0.021-4.197,0.02c-2.043,0-4.086,0-6.125,0
			c0-1.181,0-2.071,0-3.068c0.687-0.032,1.282-0.082,1.876-0.084c2.921-0.009,5.842-0.03,8.763,0.007
			c1.009,0.013,1.585-0.184,1.586-1.387c0.001-1.261-0.684-1.333-1.639-1.322c-2.555,0.031-5.111,0.01-7.667,0.01
			C73.7,119.703,70.428,119.703,67.218,119.703z M133.434,119.897c-0.048-0.036-0.139-0.161-0.23-0.161
			c-5.655-0.017-11.31-0.045-16.965,0.014c-0.371,0.003-0.953,0.611-1.059,1.032c-0.27,1.076,0.146,1.646,1.42,1.653
			c3.194,0.017,6.387,0.174,9.575,0.273c0,1.076,0,1.892,0,2.902c-3.703,0-7.264,0-10.921,0c0,0.825,0,1.455,0,2.314
			c4.284,0,8.461,0.015,12.637-0.027c0.34-0.003,0.803-0.308,0.993-0.609C130.429,124.845,131.92,122.371,133.434,119.897z
			 M113.328,83.728c-0.181-0.121-0.361-0.243-0.541-0.363c-0.527,0.621-1.29,1.161-1.534,1.878c-0.524,1.543-0.939,3.159-1.11,4.776
			c-0.321,3.034-0.438,6.09-0.642,9.161c2.544,0,4.627,0,7.156,0C112.915,94.385,114.193,88.85,113.328,83.728z M84.183,99.319
			c2.201,0,3.962,0.078,5.706-0.059c0.391-0.031,1.062-0.839,1.03-1.244c-0.293-3.749-0.584-7.509-1.168-11.22
			c-0.196-1.252-0.739-2.947-2.998-2.505C86.948,89.406,87.294,94.541,84.183,99.319z M94.137,99.19c4.277,0,8.544,0,12.835,0
			c-0.764-3.777-2.404-5.073-6.02-4.852c-0.728,0.045-1.454,0.127-2.182,0.165C95.333,94.683,94.589,95.421,94.137,99.19z
			 M110.427,119.777c-0.773-0.035-1.369-0.086-1.965-0.086c-5.405-0.002-10.808-0.003-16.213,0.016
			c-0.908,0.003-1.981-0.334-1.993,1.302c-0.012,1.576,0.959,1.384,1.93,1.384c5.465-0.003,10.93,0.001,16.395-0.008
			c0.588-0.001,1.175-0.068,1.845-0.109C110.427,121.408,110.427,120.701,110.427,119.777z M90.323,127.799
			c6.823,0,13.422,0,20.073,0c0-0.771,0-1.404,0-2.087c-6.816,0-13.511,0-20.319,0C90.169,126.494,90.239,127.087,90.323,127.799z
			 M97.79,169.024c-0.008-0.168-0.015-0.338-0.023-0.506c-6.602,0-13.204,0-19.955,0c0,0.552,0,1.457,0,2.486
			c2.423-1.598,2.778-1.564,5.134,0.394c1.653-1.042,3.162-0.859,4.345,0.832c1.762-2.227,3.126-2.312,4.321-0.374
			c1.262-1.807,1.296-1.811,3.333-0.625C95.974,170.434,96.882,169.729,97.79,169.024z M119.041,171.141
			c1.047-0.655,1.797-1.49,2.572-1.514c0.932-0.029,1.887,0.633,2.828,0.995c0-0.854,0-1.784,0-3.05
			c-6.668,1.822-13.251,1.334-19.972,1.039c0.407,0.649,1.007,0.92,1.464,1.344c0.548,0.509,0.975,1.148,1.362,1.619
			c0.751-0.517,1.499-1.031,2.443-1.68c0.23,1.114,0.368,1.784,0.537,2.606c1.973-3.357,1.973-3.357,4.305-1.319
			c1.383-0.551,2.546-1.014,3.751-1.495C118.713,170.469,118.958,170.972,119.041,171.141z M145.869,136.798
			c-1.523,1.807-2.774,3.265-3.983,4.756c-0.15,0.185-0.191,0.588-0.1,0.817c0.97,2.413,1.976,4.81,2.956,7.172
			C146.031,145.628,146.681,141.517,145.869,136.798z M55.405,136.555c-0.734,4.82,0.146,9.227,1.344,13.63
			c0.919-2.516,1.809-4.924,2.666-7.342c0.089-0.251,0.101-0.648-0.038-0.845C58.144,140.257,56.867,138.546,55.405,136.555z
			 M108.21,158.945c2.937,0,5.651,0.002,8.364-0.001c2.339-0.002,2.429-0.121,1.889-2.556c-3.392,0-6.796,0-10.254,0
			C108.21,157.25,108.21,157.958,108.21,158.945z M92.541,156.238c-3.212,0-6.186-0.038-9.157,0.05
			c-0.359,0.01-0.971,0.704-0.977,1.089c-0.008,0.512,0.449,1.468,0.732,1.478c3.128,0.107,6.261,0.067,9.402,0.067
			C92.541,157.902,92.541,157.195,92.541,156.238z M117.569,109.112c4.436,0.008,4.773-0.353,5.541-5.68
			c-1.341-0.581-2.756-0.91-3.582,0.642C118.716,105.597,118.253,107.307,117.569,109.112z M92.531,138.702
			c-3.188,0-6.153-0.038-9.114,0.048c-0.368,0.01-0.973,0.664-1,1.053c-0.029,0.406,0.498,1.214,0.801,1.223
			c3.07,0.092,6.145,0.056,9.314,0.056C92.531,140.22,92.531,139.587,92.531,138.702z M118.417,138.855c-3.457,0-6.814,0-10.291,0
			c0.041,0.814,0.073,1.449,0.107,2.107c3.503,0,6.815,0,10.184,0C118.417,140.188,118.417,139.55,118.417,138.855z
			 M138.395,133.203c1.085-1.288,2.082-2.471,3.19-3.785c-1.114-0.848-2.247-1.71-3.35-2.549
			C134.854,129.634,134.887,130.414,138.395,133.203z M135.872,156.329c0.8-0.995,2.248-2.017,2.134-2.812
			c-0.277-1.918-1.285-3.73-2.032-5.675C133.385,150.978,133.328,152.889,135.872,156.329z M63.55,108.756
			c0.163-0.144,0.326-0.289,0.49-0.433c0-1.552,0.059-3.109-0.045-4.654c-0.024-0.356-0.622-0.973-0.931-0.957
			c-0.979,0.05-2.411,0.035-2.798,0.62c-0.463,0.7-0.4,2.26,0.107,2.966C61.122,107.341,62.462,107.958,63.55,108.756z
			 M135.688,142.833c-3.431-0.431-6.705,3.497-5.545,6.568C132.89,148.028,134.749,145.966,135.688,142.833z M59.626,129.786
			c1.209,1.381,2.145,2.449,3.163,3.612c0.905-0.971,1.757-1.883,2.663-2.854c-0.788-1.104-1.515-2.122-2.374-3.325
			C61.792,128.175,60.62,129.047,59.626,129.786z M136.215,108.461c3.617-0.14,4.402-0.855,4.616-3.646
			c0.08-1.042-0.36-1.509-1.273-1.529c-0.931-0.022-2.2-0.65-2.592,0.79C136.595,105.442,136.475,106.879,136.215,108.461z
			 M82.967,108.373c-0.634-1.674-1.051-3.279-1.859-4.656c-0.31-0.528-1.502-0.65-2.31-0.715c-0.286-0.023-0.884,0.66-0.908,1.047
			C77.713,106.903,79.685,108.679,82.967,108.373z M65.471,148.835c-2.07,4.13-2.331,4.658,0.814,7.072
			C68.411,152.486,68.221,150.844,65.471,148.835z M96.45,102.825c-1.279,0.181-2.975-0.017-3.315,0.571
			c-0.498,0.86-0.345,2.43,0.115,3.429c0.659,1.433,2.19,1.151,3.77,0.94C96.84,106.206,96.67,104.734,96.45,102.825z
			 M141.421,151.572c0.447-4.497-0.57-7.034-3.056-7.82C137.511,147.364,138.476,149.935,141.421,151.572z M127.386,108.361
			c3.122,0.491,3.433,0.261,4.153-3.038c0.183-0.841,0.648-1.966-0.695-2.245c-1.178-0.244-2.362-0.092-2.677,1.451
			C127.912,105.77,127.661,107.011,127.386,108.361z M152.257,107.237c3.266,0.715,4.855-1.037,3.933-4.337
			C152.039,102.685,152.404,102.595,152.257,107.237z M71.548,150.022c0.698-3.224-2.402-6.989-5.381-6.595
			C67.079,146.31,68.856,148.397,71.548,150.022z M107.777,103.232c-3.047-0.641-3.202-0.524-3.198,2.356
			c0.001,0.482-0.151,1.048,0.049,1.425c0.247,0.464,0.76,1.049,1.211,1.096c1.595,0.169,2.49-0.844,2.306-2.423
			C108.049,104.859,107.899,104.038,107.777,103.232z M44.108,103.43c0.739,3.742,1.501,5.134,4.677,4.215
			c-0.247-1.385-0.498-2.79-0.752-4.215C46.623,103.43,45.376,103.43,44.108,103.43z M62.706,143.402
			c-1.448,2.881-3.172,5.257-2.506,8.457C63.296,150.088,64.081,147.582,62.706,143.402z M111.685,108.257
			c0.173,0.148,0.345,0.297,0.518,0.446c0.701-0.485,1.663-0.82,2.044-1.487c0.596-1.042,0.859-2.299,1.082-3.498
			c0.024-0.127-1.162-0.643-1.8-0.67c-0.443-0.019-1.234,0.425-1.305,0.777C111.927,105.277,111.846,106.775,111.685,108.257z
			 M89.458,108.07c-0.269-1.591-0.364-3.043-0.827-4.366c-0.146-0.417-1.266-0.595-1.964-0.675c-0.347-0.04-0.996,0.314-1.085,0.616
			C85.055,105.421,87.016,107.844,89.458,108.07z M73.192,108.304c-0.23-1.044-0.434-1.983-0.643-2.92
			c-0.522-2.333-0.584-2.37-3.02-1.803C69.74,108.122,70.177,109,73.192,108.304z M147.532,103.194
			c-3.647-0.608-4.402,0.516-3.092,4.375C147.014,107.138,147.797,106.056,147.532,103.194z M39.766,107.898
			c0.045-4.623-0.445-5.138-4.031-4.38C35.863,105.912,37.232,107.442,39.766,107.898z M129.727,153.266
			c-0.337,2.556,1.416,5.956,3.617,6.434C133.167,155.484,132.181,153.683,129.727,153.266z M141.389,156.476
			c-3.183-0.135-5.443,2.42-4.819,5.383C138.716,160.572,140.532,159.094,141.389,156.476z M115.212,77.261
			c-0.241-0.983-0.239-2.025-0.569-2.144c-1.592-0.571-1.535-2.202-2.355-3.236c-0.715-0.902-1.565-1.202-2.797-0.645
			C110.924,73.607,112.045,76.03,115.212,77.261z M53.492,103.224c0.022,3.717,0.779,5.024,2.966,4.01
			C56.686,103.231,56.342,102.766,53.492,103.224z M144.505,96.488c0.067-0.178,0.135-0.356,0.203-0.534
			c-1.968-1.206-3.935-2.412-5.903-3.618c-0.122,0.125-0.245,0.251-0.368,0.375c0.813,1.552,1.626,3.104,2.557,4.884
			c0.374-0.677,0.61-1.1,0.819-1.477C142.806,96.255,143.656,96.372,144.505,96.488z M164.609,103.491
			c-3.403-0.332-3.881,0.216-3.591,3.96C163.326,107.058,164.225,106.093,164.609,103.491z M140.263,138.508
			c2.229-1.591,3.365-3.609,3.818-6.278C141.29,133.318,140.178,135.165,140.263,138.508z M65.434,161.964
			c-0.968-4.046-2.553-5.518-4.746-4.588C61.205,159.882,63.109,160.951,65.434,161.964z M71.799,153.599
			c-2.64,1.8-3.244,4.163-3.548,7.127C70.501,158.714,71.891,156.734,71.799,153.599z M133.053,132.796
			c-0.158,0.163-0.317,0.326-0.475,0.49c1.152,1.163,2.278,2.357,3.484,3.461c0.21,0.192,0.916,0.153,1.124-0.052
			c0.216-0.214,0.22-0.789,0.118-1.151C136.864,133.978,135.198,132.933,133.053,132.796z M42.114,165.323
			c0.237-0.01,0.473-0.019,0.71-0.03c-0.254-3.547,0.67-7.135-0.71-10.643C42.114,158.208,42.114,161.765,42.114,165.323z
			 M90.411,71.452c-2.189,0.012-4.801,3.337-4.319,5.432C88.396,75.735,89.417,73.669,90.411,71.452z M56.097,95.764
			c0.064,0.137,0.128,0.275,0.192,0.412c0.635-0.113,1.343-0.453,1.886-0.279c0.578,0.185,1.001,0.856,1.545,1.365
			c0.534-1.484,1.034-2.87,1.534-4.256c-0.087-0.1-0.175-0.201-0.263-0.301C59.358,93.724,57.727,94.744,56.097,95.764z
			 M40.82,165.923c0-3.393,0-6.787,0-10.18c-0.259,0.01-0.519,0.021-0.778,0.031C39.589,159.194,40.23,162.572,40.82,165.923z
			 M60.629,138.33c0.67-2.164-0.832-4.51-3.392-5.474C57.836,135.09,58.68,136.89,60.629,138.33z M133.222,127.644
			c2.512-1.055,2.465-3.134,2.639-5.337C133.634,123.7,132.656,125.728,133.222,127.644z M159.827,164.369c0-3.37,0-6.414,0-9.458
			c-0.154,0.005-0.307,0.011-0.461,0.017C158.63,158.007,158.981,161.042,159.827,164.369z M68.134,132.98
			c-2.698,0.431-3.52,1.236-3.819,3.588C66.238,136.682,67.355,135.664,68.134,132.98z M64.895,122.871
			c0.397,2.11,1.122,4.011,3.387,5.361C68.221,125.456,66.496,124.204,64.895,122.871z M139.23,123.125
			c-0.155,0.153-0.311,0.305-0.467,0.457c1.214,1.136,2.429,2.271,3.643,3.407C142.287,124.232,141.627,123.578,139.23,123.125z
			 M41.208,139.25c2.589-2.045,3.079-2.83,2.902-4.576C42.049,135.428,41.678,137.145,41.208,139.25z M160.277,130.959
			c-0.888,1.434-1.844,2.321-0.967,3.516c0.215,0.292,1.371,0.321,1.699,0.029C162.493,133.182,160.682,132.487,160.277,130.959z
			 M40.546,132.269c-1.83,1.616-1.845,2.014-0.133,3.594C42.06,134.478,42.07,134.21,40.546,132.269z M37.85,152.598
			c0.931-1.312,2.166-2.512,1.893-4.712C37.856,149.268,37.426,150.767,37.85,152.598z M155.386,164.87
			c0.122,0,0.244,0.001,0.367,0.001c0-2.559,0-5.117,0-7.676c-0.122,0-0.244-0.001-0.367-0.001
			C155.386,159.752,155.386,162.311,155.386,164.87z M155.519,132.759c0.26,0.203,0.519,0.407,0.78,0.61
			c0.986-1.4,1.97-2.801,2.956-4.202c-0.285-0.2-0.571-0.401-0.857-0.601C157.438,129.964,156.478,131.362,155.519,132.759z
			 M97.353,92.422c2.112,0,4.223,0,6.335,0C101.546,91.777,99.416,91.118,97.353,92.422z M61.722,123.771
			c-2.151,0.271-3.161,1.755-3.02,4.23C59.887,126.342,60.805,125.056,61.722,123.771z M92.31,87.379
			c0.237-0.077,0.475-0.153,0.711-0.23c-0.499-1.708-0.999-3.414-1.498-5.122c-0.305,0.097-0.608,0.194-0.913,0.291
			C91.177,84.005,91.743,85.692,92.31,87.379z M44.132,164.523c0.131,0.003,0.262,0.004,0.393,0.007c0-2.069,0-4.137,0-6.206
			c-0.131,0.001-0.262,0.003-0.393,0.003C44.132,160.392,44.132,162.458,44.132,164.523z M44.058,132.597
			c0.14-2.271-1.142-3.626-3.094-3.399C42.106,130.452,43.082,131.524,44.058,132.597z M163.557,151.193
			c0.432-2.239-0.665-3.741-2.261-3.571C162.063,148.83,162.81,150.012,163.557,151.193z M45.71,151.273
			c0.138-0.125,0.276-0.25,0.413-0.375c-0.333-1.907-1.336-2.867-3.013-2.882c-0.156,0.156-0.313,0.313-0.469,0.469
			C43.664,149.415,44.688,150.344,45.71,151.273z M163.421,156.655c-0.128,0.003-0.256,0.006-0.384,0.01c0,2.328,0,4.656,0,6.985
			c0.128,0,0.256,0.001,0.384,0.001C163.421,161.318,163.421,158.987,163.421,156.655z M46.399,164.803
			c0.183-0.006,0.368-0.013,0.551-0.019c-0.104-2.073-0.208-4.146-0.313-6.219c-0.079,0.008-0.159,0.015-0.238,0.023
			C46.399,160.659,46.399,162.731,46.399,164.803z M163.008,132.583c0.273-0.19,0.546-0.381,0.82-0.572
			c-0.612-0.898-1.223-1.797-1.835-2.696c-0.254,0.168-0.507,0.335-0.761,0.503C161.823,130.741,162.416,131.662,163.008,132.583z
			 M158.023,156.657c-0.198-0.003-0.395-0.005-0.594-0.009c0.16,1.823,0.32,3.646,0.48,5.467c0.124-0.008,0.247-0.017,0.371-0.024
			C158.195,160.281,158.109,158.468,158.023,156.657z M93.678,85.65c0.189-0.025,0.376-0.052,0.565-0.077
			c-0.32-1.576-0.64-3.151-0.96-4.726c-0.233,0.049-0.466,0.099-0.698,0.148C92.949,82.547,93.314,84.099,93.678,85.65z"/>
	</g>
</g>
<g id="GwDENC.tif_2_">
	<g>
		<path fill="#FF0000" d="M89.232,38.5c7.915,0,15.831,0,23.746,0c0.428,0.409,0.808,0.885,1.29,1.214
			c2.506,1.712,3.606,3.916,3.532,7.086c-0.141,5.998,0.141,12.006,0.27,18.01c0.007,0.31,0.156,0.657,0.34,0.916
			c0.514,0.725,1.175,1.36,1.604,2.127c0.656,1.173,1.166,2.428,1.763,3.698c0.139-0.092,0.344-0.15,0.405-0.278
			c0.599-1.261,1.178-2.533,1.756-3.804c2.561-5.635,4.782-6.23,10.02-2.911c1.534,0.972,1.828,2.334,1.419,3.702
			c-0.148,0.494-1.73,0.796-2.652,0.781c-4.704-0.074-4.735-0.132-6.368,4.315c-0.369,1.006-0.47,2.12-0.61,3.195
			c-0.044,0.333,0.189,0.701,0.322,1.14c1.208-1.279,2.271-2.402,3.333-3.527c0.231,0.104,0.462,0.208,0.693,0.312
			c-0.303,1.745-0.605,3.491-0.908,5.236c0.8-0.567,1.376-1.287,1.767-2.097c0.474-0.979,0.681-2.095,1.202-3.042
			c0.814-1.478,2.018-2.384,4.33-1.789c-0.989,1.54-1.857,2.89-2.601,4.049c0.831,0.449,2.154,0.906,2.118,1.192
			c-0.108,0.858-0.581,1.824-1.218,2.424c-0.912,0.861-2.089,1.446-3.165,2.13c-0.78,0.497-1.578,0.965-2.368,1.445
			c0.056,0.15,0.113,0.3,0.168,0.45c1.611,0,3.264,0.229,4.821-0.061c1.739-0.324,3.848-0.654,5.002-1.789
			c5.214-5.124,5.945-8.091,1.677-13.304c-0.115-0.141-0.204-0.308-0.335-0.432c-1.001-0.952-0.675-1.806,0.161-2.654
			c1.128-1.144,2.438-1.218,3.612-0.293c0.876,0.69,1.725,1.617,2.163,2.622c2.08,4.777,3.274,9.588-0.332,14.274
			c-0.571,0.742-0.963,1.62-1.502,2.544c1.604,0.596,2.959,1.1,4.402,1.637c-0.246,0.303-0.433,0.533-0.691,0.849
			c0.842,0.414,1.577,0.775,2.373,1.166c-0.64,0.297-1.146,0.532-1.983,0.919c2.25,0.793,1.668,2.502,1.597,3.795
			c-0.099,1.784,0.471,2.824,2.243,2.801c6.753-0.09,13.506-0.216,20.259-0.327c0,0.121,0,0.244,0,0.365
			c-0.375,0.946-0.796,1.878-1.118,2.842c-1.27,3.796-3.692,6.498-7.399,8.074c-2.591,1.102-2.914,2.818-1.225,5.085
			c1.483,1.99,2.832,4.084,4.165,6.18c0.313,0.492,0.321,1.178,0.606,2.32c-1.476-0.677-2.457-1.094-3.406-1.57
			c-1.652-0.83-2.664-0.347-2.615,1.488c0.025,0.948,0.515,1.932,0.97,2.809c0.583,1.125,1.474,2.099,2.003,3.243
			c1.702,3.684,0.754,7.447-2.217,9.986c-0.471,0.403-0.73,1.522-0.54,2.145c0.546,1.795,1.48,3.47,2.059,5.258
			c0.63,1.946,1.454,3.965,1.458,5.954c0.015,5.778-0.331,11.558-0.551,17.337c-0.062,1.635-0.175,3.268-0.265,4.902
			c-0.093-0.003-0.186-0.008-0.278-0.011c-0.316-0.824-0.632-1.647-1.117-2.911c-0.34,1.238-0.561,2.04-0.807,2.932
			c-0.361-0.43-0.616-0.734-0.758-0.904c-0.613,0.814-1.186,1.573-1.969,2.614c-0.329-1.119-0.494-1.68-0.77-2.618
			c-0.387,0.914-0.629,1.488-0.883,2.086c-0.274-0.316-0.508-0.586-0.946-1.091c-0.106,1.243-0.184,2.149-0.263,3.055
			c-0.09,0.004-0.18,0.009-0.27,0.014c-0.409-1.126-0.817-2.253-1.346-3.711c-0.491,1.061-0.803,1.737-1.273,2.753
			c-0.157-3.102-0.442-5.813-0.402-8.519c0.091-6.254,0.275-12.509,0.561-18.757c0.09-1.972,1.311-3.494,2.888-4.676
			c2.001-1.502,2.355-2.896,1.141-5.124c-0.488-0.896-1.172-1.701-1.856-2.47c-3.212-3.612-2.907-8.175,0.828-11.126
			c1.494-1.18,1.947-2.545,1.16-4.296c-1.556,0.381-3.076,0.753-4.594,1.124c-0.116-0.188-0.233-0.375-0.349-0.563
			c0.753-1.358,1.413-2.78,2.285-4.057c0.992-1.454,2.343-2.68,3.208-4.194c0.516-0.903,0.499-2.17,0.466-3.265
			c-0.005-0.174-1.364-0.413-2.102-0.437c-1.886-0.061-3.774-0.017-5.661-0.017c-2.294,0.001-4.588,0-7.112,0
			c0.328,2.258-0.471,3.736-2.067,4.952c-0.677,0.515-1.17,1.452-1.412,2.293c-0.173,0.598-0.03,1.68,0.388,1.995
			c4.161,3.131,5.943,7.641,6.475,12.442c0.491,4.43,0.234,8.993-0.161,13.457c-0.523,5.903-2.488,11.466-7.122,15.367
			c-3.309,2.787-7.22,4.894-10.993,7.079c-1.522,0.882-2.038,1.744-1.679,3.44c0.636,2.993,0.05,5.907-0.849,8.763
			c-0.183,0.033-0.367,0.066-0.551,0.099c-0.388-1.694-0.777-3.388-1.171-5.104c-0.153-0.041-0.326-0.127-0.499-0.127
			c-15.827-0.012-31.655-0.011-47.482-0.039c-1.062-0.002-1.307,0.506-1.424,1.428c-0.158,1.245-0.482,2.468-0.734,3.701
			c-1.493-2.614-1.433-5.266-1.305-7.937c0.211-4.388,0.271-4.715-3.972-5.718c-6.028-1.426-9.857-5.426-12.952-10.246
			c-4.33-6.745-4.995-14.382-4.376-22.149c0.415-5.213,2.556-9.715,6.371-13.377c1.929-1.852,1.911-2.39,0.028-4.395
			c-0.332-0.354-0.67-0.746-1.088-0.966c-1.358-0.716-1.873-1.786-1.607-3.283c0.265-1.493-0.485-1.877-1.862-1.852
			c-4.078,0.076-8.159,0.101-12.237,0.049c-1.368-0.017-1.887,0.709-1.598,1.772c0.416,1.538,0.9,3.188,1.839,4.423
			c1.234,1.622,3.012,2.816,4.416,4.324c1.278,1.372,0.918,2.235-0.867,2.672c-1.014,0.249-1.713,0.051-2.32-0.883
			c-0.258-0.396-1.151-0.808-1.463-0.646c-0.553,0.285-1.103,0.947-1.255,1.552c-0.284,1.124,0.206,1.891,1.437,2.316
			c2.954,1.018,4.221,3.281,4.313,6.32c0.086,2.843-0.94,5.226-2.888,7.249c-1.547,1.607-1.471,4.608,0.363,5.912
			c2.676,1.903,3.866,4.521,3.96,7.641c0.218,7.3,0.313,14.603,0.45,21.905c0.008,0.428-0.052,0.857-0.079,1.287
			c-0.079-0.003-0.157-0.006-0.236-0.009c-0.313-0.89-0.628-1.78-1.117-3.169c-0.441,1.537-0.748,2.612-1.199,4.184
			c-0.329-1.661-0.54-2.731-0.752-3.799c-0.12,0.008-0.24,0.016-0.361,0.024c-0.265,0.656-0.529,1.31-0.872,2.161
			c-0.253-0.754-0.446-1.329-0.736-2.191c-0.372,0.907-0.618,1.506-0.863,2.105c-0.064-0.125-0.127-0.25-0.191-0.374
			c-0.416,0.172-0.832,0.343-1.29,0.533c-0.236-0.774-0.469-1.542-0.78-2.567c-0.364,0.689-0.574,1.086-0.849,1.605
			c-0.203-0.8-0.357-1.412-0.512-2.025c-0.12,0-0.241-0.001-0.361-0.001c-0.299,0.912-0.597,1.825-1.052,3.216
			c-0.492-7.999-0.987-15.467-1.376-22.941c-0.06-1.163,0.23-2.396,0.598-3.519c0.739-2.251,1.648-4.446,2.478-6.667
			c0.513-1.375,0.688-2.559-1.158-3.169c-0.615-0.203-1.139-0.907-1.543-1.494c-2.091-3.038-1.561-7.905,0.814-10.73
			c0.757-0.9,1.168-2.394,1.125-3.593c-0.064-1.784-1.392-2.26-3.048-1.454c-0.924,0.45-1.898,0.793-2.85,1.185
			c-0.189-0.224-0.378-0.448-0.567-0.672c1.228-1.674,2.578-3.273,3.651-5.041c1.113-1.834,2.053-3.79,2.875-5.775
			c0.375-0.906-0.018-1.757-1.225-1.996c-6.18-1.22-9.367-5.135-10.115-11.438c0.666,0,1.264,0,1.863,0
			c6.088-0.004,12.177-0.008,18.265-0.015c0.547-0.001,1.107,0.043,1.641-0.049c1.338-0.23,1.806-1.662,1.042-2.531
			c0.429-1.345,0.822-2.58,1.235-3.876c-0.339-0.301-0.748-0.665-1.333-1.186c1.225-0.189,2.183-0.335,3.489-0.536
			c-0.755-0.564-1.164-0.87-1.817-1.357c1.76-0.498,3.267-0.926,5.226-1.481c-2.833-2.001-4.276-4.368-4.584-7.39
			c-0.423-4.149-0.404-8.198,2.683-11.503c1.38-1.478,2.871-1.452,4.346-0.248c1.713,1.399,0.113,2.247-0.515,3.13
			c-3,4.211-2.957,6.895,0.334,10.835c0.506,0.606,1.049,1.186,1.613,1.739c2.185,2.14,7.219,2.929,10.113,1.609
			c-2.176-1.954-6.164-2.176-6.418-6.37c0.963,0.106,1.556,0.171,2.656,0.292c-1.345-1.647-2.349-2.876-3.378-4.137
			c2.125-1.072,3.577-0.519,4.316,1.561c0.94,2.646,2.339,4.854,5.459,6.236c-0.885-1.585-1.653-2.735-2.177-3.987
			c-0.307-0.734-0.227-1.631-0.32-2.454c0.661,0.49,1.364,0.934,1.969,1.485c0.449,0.408,0.771,0.953,1.15,1.438
			c0.177-0.07,0.354-0.139,0.531-0.209c0.135-3.088,0.476-6.244-1.36-9.037c-0.388-0.59-1.662-0.89-2.491-0.829
			c-1.15,0.086-2.265,0.64-3.386,0.99c-0.746-1.706-1.036-3.222,0.361-4.661c1.843-1.895,4.207-1.366,6.367-1.232
			c0.568,0.035,1.137,1.617,1.531,2.561c0.68,1.625,1.209,3.314,1.833,4.964c0.374,0.988,0.808,1.953,1.32,3.181
			c0.554-2.201,1.016-4.031,1.482-5.882c0.439,0.178,0.778,0.315,1.095,0.443c1.509-3.612,1.929-7.241,1.808-10.986
			c-0.097-2.979,0.127-5.971-0.006-8.948C82.84,43.407,84.386,39.926,89.232,38.5z M90.417,74.438
			c3.24,0.485,6.457,1.366,9.664,1.333c3.269-0.034,6.529-0.968,10.163-1.57c-3.054-2.376-3.652-5.824-4.16-9.188
			c1.49-0.306,3.194-0.657,4.929-1.014c0.284-1.235,0.558-2.427,0.828-3.604c0.414,0.357,1.006,0.868,1.854,1.6
			c0-4.759,0.128-9.13-0.052-13.488c-0.097-2.347-1.362-3.63-3.105-3.625c-7,0.017-13.999,0.112-21,0.165
			c-1.69,0.013-2.381,0.973-2.505,2.518c-0.097,1.211-0.258,2.422-0.271,3.634c-0.038,3.376-0.013,6.753-0.013,10.383
			c0.89-0.567,1.5-0.957,2.079-1.325c0.106,1.357,0.199,2.566,0.288,3.708c1.039,0.063,1.893,0.113,2.747,0.165
			c-0.025,0.046-0.05,0.093-0.075,0.139c1,0.332,2.002,0.663,2.879,0.954c-0.291,0.938-1.088,2.176-0.753,2.725
			c0.583,0.957,0.25,1.474-0.193,2.089C92.641,71.539,91.503,72.999,90.417,74.438z M70.01,160.874
			c20.597,2.505,41.066,4,62.136-0.495c-4.058-3.545-5.083-7.788-5.282-12.413c-3.58,0-6.918,0-10.257,0
			c-0.744,0-1.675-0.042-1.398,1.047c0.112,0.439,0.919,0.958,1.439,0.991c1.862,0.12,3.737,0.047,5.687,0.047
			c0,3.4,0,6.581,0,9.935c-5.832,0-11.541,0.013-17.249-0.036c-0.323-0.003-0.913-0.512-0.92-0.797
			c-0.068-2.962-0.042-5.926-0.042-9.098c2.21,0,4.189,0,6.154,0c0.45-1.423,0.308-2.12-1.258-2.107
			c-5.781,0.052-11.562-0.002-17.343,0.063c-0.461,0.005-1.205,0.527-1.316,0.944c-0.283,1.058,0.56,1.11,1.348,1.102
			c1.55-0.015,3.1-0.004,4.602-0.004c0,3.484,0,6.617,0,9.794c-5.935,0-11.734,0-17.541,0c0-3.296,0-6.436,0-9.793
			c2.157,0,4.212,0.052,6.26-0.044c0.413-0.019,0.801-0.601,1.199-0.924c-0.41-0.371-0.811-1.051-1.233-1.064
			c-2.979-0.093-5.963-0.094-8.943-0.003c-0.473,0.015-1.295,0.603-1.336,0.993C74.261,153.337,73.033,157.333,70.01,160.874z
			 M110.432,129.386c-6.728,0-13.364,0-19.978,0c0,1.01,0,1.82,0,2.728c2.141,0,4.121,0,5.975,0c0,3.359,0,6.602,0,10.066
			c-2.161,0-4.073,0-6.005,0c0,0.868,0,1.5,0,2.21c6.722,0,13.316,0,19.989,0c0-0.766,0-1.402,0-2.32c-2.115,0-4.136,0-6.18,0
			c0-3.421,0-6.558,0-9.968c2.148,0,4.178,0,6.201,0C110.432,131.05,110.432,130.272,110.432,129.386z M115.226,144.514
			c3.686,0,7.201,0.036,10.714-0.048c0.406-0.01,1.024-0.613,1.156-1.055c0.625-2.101,1.955-3.641,3.691-4.837
			c1.173-0.808,2.469-1.436,3.809-2.201c-1.043-1.109-2.37-1.999-2.958-3.24c-1.721-3.632-4.555-4.326-8.195-3.976
			c-2.692,0.259-5.43,0.051-8.163,0.051c0,1.142,0,1.955,0,2.92c2.532,0,4.926,0,7.148,0c0,3.399,0,6.637,0,10.077
			c-2.567,0-4.847,0-7.201,0C115.226,143.007,115.226,143.598,115.226,144.514z M78.574,142.114c0-3.462,0-6.642,0-10.115
			c2.155,0,4.216-0.022,6.275,0.01c0.988,0.015,1.416-0.351,1.423-1.388c0.007-1.031-0.381-1.395-1.392-1.388
			c-4.136,0.031-8.272-0.008-12.408,0.044c-0.435,0.005-1.074,0.321-1.262,0.68c-1.253,2.378-2.409,4.807-3.639,7.309
			c3.413,0.651,5.475,3.208,6.968,6.451c0.195,0.423,1.041,0.754,1.594,0.768c2.856,0.076,5.716,0.026,8.575,0.041
			c0.85,0.004,1.559,0.001,1.558-1.195c-0.002-1.17-0.666-1.234-1.54-1.223C82.791,142.131,80.855,142.114,78.574,142.114z
			 M67.218,116.957c1.286,2.604,2.409,4.999,3.667,7.321c0.244,0.449,1.007,0.842,1.547,0.865c2.247,0.097,4.501,0.044,6.753,0.045
			c2.288,0.001,4.576,0,6.829,0c0.536-1.824,0.087-2.538-1.64-2.408c-1.392,0.105-2.798,0.021-4.197,0.02c-2.043,0-4.086,0-6.125,0
			c0-1.181,0-2.071,0-3.068c0.687-0.032,1.282-0.082,1.876-0.084c2.921-0.009,5.842-0.03,8.763,0.007
			c1.009,0.013,1.585-0.184,1.586-1.387c0.001-1.261-0.684-1.333-1.639-1.322c-2.555,0.031-5.111,0.01-7.667,0.01
			C73.7,116.957,70.428,116.957,67.218,116.957z M133.434,117.151c-0.048-0.036-0.139-0.161-0.23-0.161
			c-5.655-0.017-11.31-0.045-16.965,0.014c-0.371,0.003-0.953,0.611-1.059,1.032c-0.27,1.076,0.146,1.646,1.42,1.653
			c3.194,0.017,6.387,0.174,9.575,0.273c0,1.076,0,1.892,0,2.902c-3.703,0-7.264,0-10.921,0c0,0.825,0,1.455,0,2.314
			c4.284,0,8.461,0.015,12.637-0.027c0.34-0.003,0.803-0.308,0.993-0.609C130.429,122.099,131.92,119.625,133.434,117.151z
			 M113.328,80.982c-0.181-0.121-0.361-0.243-0.541-0.363c-0.527,0.621-1.29,1.161-1.534,1.878c-0.524,1.543-0.939,3.159-1.11,4.776
			c-0.321,3.034-0.438,6.09-0.642,9.161c2.544,0,4.627,0,7.156,0C112.915,91.639,114.193,86.104,113.328,80.982z M84.183,96.573
			c2.201,0,3.962,0.078,5.706-0.059c0.391-0.031,1.062-0.839,1.03-1.244c-0.293-3.749-0.584-7.509-1.168-11.22
			c-0.196-1.252-0.739-2.947-2.998-2.505C86.948,86.66,87.294,91.796,84.183,96.573z M94.137,96.444c4.277,0,8.544,0,12.835,0
			c-0.764-3.777-2.404-5.073-6.02-4.852c-0.728,0.045-1.454,0.127-2.182,0.165C95.333,91.937,94.589,92.675,94.137,96.444z
			 M110.427,117.031c-0.773-0.035-1.369-0.086-1.965-0.086c-5.405-0.002-10.808-0.003-16.213,0.016
			c-0.908,0.003-1.981-0.334-1.993,1.302c-0.012,1.576,0.959,1.384,1.93,1.384c5.465-0.003,10.93,0.001,16.395-0.008
			c0.588-0.001,1.175-0.068,1.845-0.109C110.427,118.662,110.427,117.955,110.427,117.031z M90.323,125.054
			c6.823,0,13.422,0,20.073,0c0-0.771,0-1.404,0-2.087c-6.816,0-13.511,0-20.319,0C90.169,123.748,90.239,124.341,90.323,125.054z
			 M97.79,166.278c-0.008-0.168-0.015-0.338-0.023-0.506c-6.602,0-13.204,0-19.955,0c0,0.552,0,1.457,0,2.486
			c2.423-1.598,2.778-1.564,5.134,0.394c1.653-1.042,3.162-0.859,4.345,0.832c1.762-2.227,3.126-2.312,4.321-0.374
			c1.262-1.807,1.296-1.811,3.333-0.625C95.974,167.688,96.882,166.983,97.79,166.278z M119.041,168.395
			c1.047-0.655,1.797-1.49,2.572-1.514c0.932-0.029,1.887,0.633,2.828,0.995c0-0.854,0-1.784,0-3.05
			c-6.668,1.822-13.251,1.334-19.972,1.039c0.407,0.649,1.007,0.92,1.464,1.344c0.548,0.509,0.975,1.148,1.362,1.619
			c0.751-0.517,1.499-1.031,2.443-1.68c0.23,1.114,0.368,1.784,0.537,2.606c1.973-3.357,1.973-3.357,4.305-1.319
			c1.383-0.551,2.546-1.014,3.751-1.495C118.713,167.723,118.958,168.226,119.041,168.395z M145.869,134.052
			c-1.523,1.807-2.774,3.265-3.983,4.756c-0.15,0.185-0.191,0.588-0.1,0.817c0.97,2.413,1.976,4.81,2.956,7.172
			C146.031,142.882,146.681,138.771,145.869,134.052z M55.405,133.809c-0.734,4.82,0.146,9.227,1.344,13.63
			c0.919-2.516,1.809-4.924,2.666-7.342c0.089-0.251,0.101-0.648-0.038-0.845C58.144,137.511,56.867,135.8,55.405,133.809z
			 M108.21,156.199c2.937,0,5.651,0.002,8.364-0.001c2.339-0.002,2.429-0.121,1.889-2.556c-3.392,0-6.796,0-10.254,0
			C108.21,154.504,108.21,155.212,108.21,156.199z M92.541,153.492c-3.212,0-6.186-0.038-9.157,0.05
			c-0.359,0.01-0.971,0.704-0.977,1.089c-0.008,0.512,0.449,1.468,0.732,1.478c3.128,0.107,6.261,0.067,9.402,0.067
			C92.541,155.157,92.541,154.449,92.541,153.492z M117.569,106.366c4.436,0.008,4.773-0.353,5.541-5.68
			c-1.341-0.581-2.756-0.91-3.582,0.642C118.716,102.851,118.253,104.561,117.569,106.366z M92.531,135.956
			c-3.188,0-6.153-0.038-9.114,0.048c-0.368,0.01-0.973,0.664-1,1.053c-0.029,0.406,0.498,1.214,0.801,1.223
			c3.07,0.092,6.145,0.056,9.314,0.056C92.531,137.474,92.531,136.841,92.531,135.956z M118.417,136.109c-3.457,0-6.814,0-10.291,0
			c0.041,0.814,0.073,1.449,0.107,2.107c3.503,0,6.815,0,10.184,0C118.417,137.442,118.417,136.804,118.417,136.109z
			 M138.395,130.457c1.085-1.288,2.082-2.471,3.19-3.785c-1.114-0.848-2.247-1.71-3.35-2.549
			C134.854,126.888,134.887,127.668,138.395,130.457z M135.872,153.583c0.8-0.995,2.248-2.017,2.134-2.812
			c-0.277-1.918-1.285-3.73-2.032-5.675C133.385,148.232,133.328,150.143,135.872,153.583z M63.55,106.01
			c0.163-0.144,0.326-0.289,0.49-0.433c0-1.552,0.059-3.109-0.045-4.654c-0.024-0.356-0.622-0.973-0.931-0.957
			c-0.979,0.05-2.411,0.035-2.798,0.62c-0.463,0.7-0.4,2.26,0.107,2.966C61.122,104.595,62.462,105.212,63.55,106.01z
			 M135.688,140.087c-3.431-0.431-6.705,3.497-5.545,6.568C132.89,145.282,134.749,143.22,135.688,140.087z M59.626,127.04
			c1.209,1.381,2.145,2.449,3.163,3.612c0.905-0.971,1.757-1.883,2.663-2.854c-0.788-1.104-1.515-2.122-2.374-3.325
			C61.792,125.429,60.62,126.301,59.626,127.04z M136.215,105.715c3.617-0.14,4.402-0.855,4.616-3.646
			c0.08-1.042-0.36-1.509-1.273-1.529c-0.931-0.022-2.2-0.65-2.592,0.79C136.595,102.696,136.475,104.133,136.215,105.715z
			 M82.967,105.627c-0.634-1.674-1.051-3.279-1.859-4.656c-0.31-0.528-1.502-0.65-2.31-0.715c-0.286-0.023-0.884,0.66-0.908,1.047
			C77.713,104.157,79.685,105.933,82.967,105.627z M65.471,146.089c-2.07,4.13-2.331,4.658,0.814,7.072
			C68.411,149.74,68.221,148.098,65.471,146.089z M96.45,100.079c-1.279,0.181-2.975-0.017-3.315,0.571
			c-0.498,0.86-0.345,2.43,0.115,3.429c0.659,1.433,2.19,1.151,3.77,0.94C96.84,103.46,96.67,101.988,96.45,100.079z
			 M141.421,148.826c0.447-4.497-0.57-7.034-3.056-7.82C137.511,144.618,138.476,147.189,141.421,148.826z M127.386,105.615
			c3.122,0.491,3.433,0.261,4.153-3.038c0.183-0.841,0.648-1.966-0.695-2.245c-1.178-0.244-2.362-0.092-2.677,1.451
			C127.912,103.024,127.661,104.265,127.386,105.615z M152.257,104.491c3.266,0.715,4.855-1.037,3.933-4.337
			C152.039,99.939,152.404,99.849,152.257,104.491z M71.548,147.276c0.698-3.224-2.402-6.989-5.381-6.594
			C67.079,143.564,68.856,145.651,71.548,147.276z M107.777,100.486c-3.047-0.641-3.202-0.524-3.198,2.356
			c0.001,0.482-0.151,1.048,0.049,1.425c0.247,0.464,0.76,1.049,1.211,1.096c1.595,0.169,2.49-0.844,2.306-2.423
			C108.049,102.113,107.899,101.292,107.777,100.486z M44.108,100.684c0.739,3.742,1.501,5.134,4.677,4.215
			c-0.247-1.385-0.498-2.79-0.752-4.215C46.623,100.684,45.376,100.684,44.108,100.684z M62.706,140.656
			c-1.448,2.881-3.172,5.257-2.506,8.457C63.296,147.342,64.081,144.836,62.706,140.656z M111.685,105.511
			c0.173,0.148,0.345,0.297,0.518,0.446c0.701-0.485,1.663-0.82,2.044-1.487c0.596-1.042,0.859-2.299,1.082-3.498
			c0.024-0.127-1.162-0.643-1.8-0.67c-0.443-0.019-1.234,0.425-1.305,0.777C111.927,102.531,111.846,104.029,111.685,105.511z
			 M89.458,105.324c-0.269-1.591-0.364-3.043-0.827-4.366c-0.146-0.417-1.266-0.595-1.964-0.675
			c-0.347-0.04-0.996,0.314-1.085,0.616C85.055,102.676,87.016,105.098,89.458,105.324z M73.192,105.558
			c-0.23-1.044-0.434-1.983-0.643-2.92c-0.522-2.333-0.584-2.37-3.02-1.803C69.74,105.377,70.177,106.254,73.192,105.558z
			 M147.532,100.449c-3.647-0.608-4.402,0.516-3.092,4.375C147.014,104.392,147.797,103.31,147.532,100.449z M39.766,105.152
			c0.045-4.623-0.445-5.138-4.031-4.38C35.863,103.166,37.232,104.696,39.766,105.152z M129.727,150.52
			c-0.337,2.556,1.416,5.956,3.617,6.434C133.167,152.738,132.181,150.937,129.727,150.52z M141.389,153.73
			c-3.183-0.135-5.443,2.42-4.819,5.383C138.716,157.826,140.532,156.348,141.389,153.73z M115.212,74.515
			c-0.241-0.983-0.239-2.025-0.569-2.144c-1.592-0.571-1.535-2.202-2.355-3.236c-0.715-0.902-1.565-1.202-2.797-0.645
			C110.924,70.861,112.045,73.284,115.212,74.515z M53.492,100.478c0.022,3.717,0.779,5.024,2.966,4.01
			C56.686,100.485,56.342,100.02,53.492,100.478z M144.505,93.742c0.067-0.178,0.135-0.356,0.203-0.534
			c-1.968-1.206-3.935-2.412-5.903-3.618c-0.122,0.125-0.245,0.251-0.368,0.375c0.813,1.552,1.626,3.104,2.557,4.884
			c0.374-0.677,0.61-1.1,0.819-1.477C142.806,93.509,143.656,93.626,144.505,93.742z M164.609,100.745
			c-3.403-0.332-3.881,0.216-3.591,3.96C163.326,104.312,164.225,103.347,164.609,100.745z M140.263,135.762
			c2.229-1.591,3.365-3.609,3.818-6.278C141.29,130.572,140.178,132.419,140.263,135.762z M65.434,159.219
			c-0.968-4.046-2.553-5.518-4.746-4.588C61.205,157.136,63.109,158.205,65.434,159.219z M71.799,150.853
			c-2.64,1.8-3.244,4.163-3.548,7.127C70.501,155.968,71.891,153.988,71.799,150.853z M133.053,130.05
			c-0.158,0.163-0.317,0.326-0.475,0.49c1.152,1.163,2.278,2.357,3.484,3.46c0.21,0.192,0.916,0.153,1.124-0.052
			c0.216-0.214,0.22-0.789,0.118-1.151C136.864,131.232,135.198,130.188,133.053,130.05z M42.114,162.577
			c0.237-0.01,0.473-0.019,0.71-0.03c-0.254-3.547,0.67-7.135-0.71-10.643C42.114,155.462,42.114,159.019,42.114,162.577z
			 M90.411,68.706c-2.189,0.012-4.801,3.337-4.319,5.432C88.396,72.989,89.417,70.923,90.411,68.706z M56.097,93.018
			c0.064,0.137,0.128,0.275,0.192,0.412c0.635-0.113,1.343-0.453,1.886-0.279c0.578,0.185,1.001,0.856,1.545,1.365
			c0.534-1.484,1.034-2.87,1.534-4.256c-0.087-0.1-0.175-0.201-0.263-0.301C59.358,90.978,57.727,91.998,56.097,93.018z
			 M40.82,163.177c0-3.393,0-6.787,0-10.18c-0.259,0.01-0.519,0.021-0.778,0.031C39.589,156.448,40.23,159.826,40.82,163.177z
			 M60.629,135.584c0.67-2.164-0.832-4.51-3.392-5.474C57.836,132.344,58.68,134.144,60.629,135.584z M133.222,124.898
			c2.512-1.055,2.465-3.134,2.639-5.337C133.634,120.954,132.656,122.982,133.222,124.898z M159.827,161.623c0-3.37,0-6.414,0-9.458
			c-0.154,0.005-0.307,0.011-0.461,0.017C158.63,155.261,158.981,158.296,159.827,161.623z M68.134,130.234
			c-2.698,0.431-3.52,1.236-3.819,3.588C66.238,133.936,67.355,132.918,68.134,130.234z M64.895,120.125
			c0.397,2.11,1.122,4.011,3.387,5.361C68.221,122.71,66.496,121.458,64.895,120.125z M139.23,120.379
			c-0.155,0.153-0.311,0.305-0.467,0.457c1.214,1.136,2.429,2.271,3.643,3.407C142.287,121.486,141.627,120.832,139.23,120.379z
			 M41.208,136.504c2.589-2.045,3.079-2.83,2.902-4.576C42.049,132.682,41.678,134.399,41.208,136.504z M160.277,128.213
			c-0.888,1.434-1.844,2.321-0.967,3.515c0.215,0.292,1.371,0.321,1.699,0.029C162.493,130.436,160.682,129.741,160.277,128.213z
			 M40.546,129.523c-1.83,1.616-1.845,2.014-0.133,3.594C42.06,131.732,42.07,131.464,40.546,129.523z M37.85,149.852
			c0.931-1.312,2.166-2.512,1.893-4.712C37.856,146.522,37.426,148.021,37.85,149.852z M155.386,162.124
			c0.122,0,0.244,0.001,0.367,0.001c0-2.559,0-5.117,0-7.676c-0.122,0-0.244-0.001-0.367-0.001
			C155.386,157.006,155.386,159.565,155.386,162.124z M155.519,130.013c0.26,0.203,0.519,0.407,0.78,0.61
			c0.986-1.4,1.97-2.801,2.956-4.202c-0.285-0.2-0.571-0.401-0.857-0.601C157.438,127.219,156.478,128.616,155.519,130.013z
			 M97.353,89.676c2.112,0,4.223,0,6.335,0C101.546,89.031,99.416,88.372,97.353,89.676z M61.722,121.025
			c-2.151,0.271-3.161,1.755-3.02,4.23C59.887,123.596,60.805,122.31,61.722,121.025z M92.31,84.633
			c0.237-0.077,0.475-0.153,0.711-0.23c-0.499-1.708-0.999-3.414-1.498-5.122c-0.305,0.097-0.608,0.194-0.913,0.291
			C91.177,81.26,91.743,82.946,92.31,84.633z M44.132,161.777c0.131,0.003,0.262,0.004,0.393,0.007c0-2.069,0-4.137,0-6.206
			c-0.131,0.001-0.262,0.003-0.393,0.003C44.132,157.646,44.132,159.712,44.132,161.777z M44.058,129.851
			c0.14-2.271-1.142-3.626-3.094-3.399C42.106,127.707,43.082,128.779,44.058,129.851z M163.557,148.447
			c0.432-2.239-0.665-3.741-2.261-3.571C162.063,146.085,162.81,147.266,163.557,148.447z M45.71,148.527
			c0.138-0.125,0.276-0.25,0.413-0.375c-0.333-1.907-1.336-2.867-3.013-2.882c-0.156,0.156-0.313,0.313-0.469,0.469
			C43.664,146.669,44.688,147.598,45.71,148.527z M163.421,153.909c-0.128,0.003-0.256,0.006-0.384,0.01c0,2.328,0,4.656,0,6.985
			c0.128,0,0.256,0.001,0.384,0.001C163.421,158.573,163.421,156.241,163.421,153.909z M46.399,162.057
			c0.183-0.006,0.368-0.013,0.551-0.019c-0.104-2.073-0.208-4.146-0.313-6.219c-0.079,0.008-0.159,0.015-0.238,0.023
			C46.399,157.913,46.399,159.985,46.399,162.057z M163.008,129.837c0.273-0.19,0.546-0.382,0.82-0.572
			c-0.612-0.898-1.223-1.797-1.835-2.696c-0.254,0.168-0.507,0.335-0.761,0.503C161.823,127.995,162.416,128.916,163.008,129.837z
			 M158.023,153.911c-0.198-0.003-0.395-0.005-0.594-0.009c0.16,1.823,0.32,3.646,0.48,5.467c0.124-0.008,0.247-0.017,0.371-0.024
			C158.195,157.535,158.109,155.722,158.023,153.911z M93.678,82.904c0.189-0.025,0.376-0.051,0.565-0.077
			c-0.32-1.576-0.64-3.151-0.96-4.726c-0.233,0.049-0.466,0.099-0.698,0.148C92.949,79.801,93.314,81.353,93.678,82.904z"/>
	</g>
</g>
</svg>
