<?xml version="1.0" encoding="utf-8"?>
<!-- Generator: Adobe Illustrator 17.0.0, SVG Export Plug-In . SVG Version: 6.00 Build 0)  -->
<!DOCTYPE svg PUBLIC "-//W3C//DTD SVG 1.1//EN" "http://www.w3.org/Graphics/SVG/1.1/DTD/svg11.dtd">
<svg version="1.1" id="Layer_1" xmlns="http://www.w3.org/2000/svg" xmlns:xlink="http://www.w3.org/1999/xlink" x="0px" y="0px"
	 width="150px" height="150px" viewBox="0 0 150 150" enable-background="new 0 0 150 150" xml:space="preserve">
<g>
	<path fill="#FF7BAC" d="M3.56,44.801c0.627-0.678,1.175-1.46,1.896-2.016c2.17-1.671,4.501-1.985,7.02-0.242
		c0.663-2.949,2.365-4.568,5.13-4.903c3.131-0.38,4.968,1.254,4.77,4.389c-0.099,1.576-0.535,3.152-0.99,4.677
		c-0.439,1.471-1.067,2.889-1.671,4.305c-0.604,1.414-1.281,2.797-2.023,4.403c-5.458-1.509-10.625-3.321-14.132-8.116
		C3.56,46.466,3.56,45.633,3.56,44.801z"/>
	<path fill="#FF7BAC" d="M74.031,113.468c-2.362,0.032-4.724,0.062-7.086,0.096c-2.85,0.041-2.898,0.049-3.288-2.721
		c-0.283-2.011-0.419-4.043-0.62-6.066c-0.171-0.012-0.343-0.025-0.514-0.037c-0.199,1.168-0.357,2.344-0.604,3.502
		c-1.363,6.384-0.511,5.436-6.58,5.407c-4.79-0.023-5.023-0.216-4.679-4.944c0.358-4.912,1.036-9.801,1.575-14.7
		c0.069-0.63,0.146-1.26,0.217-1.875c-3.11-0.61-3.787-1.383-3.689-4.687c0.049-1.674,0.014-2.991-2-3.468
		c-0.422-0.1-0.848-1.065-0.91-1.669c-0.927-9.041,2.746-15.876,10.09-20.973c0.497-0.345,0.817-1.257,0.808-1.9
		c-0.005-0.363-0.803-0.912-1.324-1.037c-2.896-0.691-5.822-1.279-8.155-3.324c-0.844-0.74-1.636-1.54-2.542-2.397
		c-0.363,0.174-0.773,0.379-1.19,0.569c-2.949,1.348-5.419,0.804-7.304-1.603c-1.902-2.428-1.846-5.144,0.014-7.69
		c0.304-0.416,0.366-1.332,0.116-1.782c-4.285-7.738-4.312-15.552-0.341-23.353c0.768-1.509,2.126-2.79,3.425-3.933
		c0.869-0.765,1.531-1.413,1.426-2.63c-0.04-0.467,0.049-0.949,0.11-1.42c0.274-2.12,1.37-2.848,3.279-2.005
		c1.444,0.638,2.788,1.503,4.219,2.29c0.717-1.818,0.187-4.519,2.957-5.06c2.175-0.425,3.165,1.19,3.932,2.954
		c11.534-2.144,21.097,0.444,27.541,11.557c1.059-1.12,2.115-1.958,2.817-3.028c2.913-4.439,6.69-8.032,10.872-11.203
		c5.875-4.454,14.05-4.58,20.317-0.24c1.848,1.28,3.465,1.118,5.09,0.08c1.267-0.81,2.408-0.785,3.692-0.276
		c4.421,1.755,7.835,4.751,10.206,8.798c2.969,5.069,5.89,10.208,7.275,15.992c1.388,5.798,1.317,11.682,0.349,17.53
		c-0.569,3.437-3.077,4.925-6.154,3.634c-1.949-0.817-2.637,0.154-3.45,1.544c-1.587,2.711-3.683,2.968-5.936,0.838
		c-0.269-0.254-0.638-0.402-1.098-0.683c-0.233,0.857-0.354,1.542-0.605,2.174c-0.448,1.126-1.127,1.854-2.551,1.754
		c-0.661-0.046-1.522,0.326-2.016,0.798c-1.252,1.196-2.277,1.244-3.328-0.137c-0.429-0.564-0.764-1.201-1.133-1.811
		c-1.27-2.098-2.224-2.177-3.285,0.082c-1.126,2.398-1.896,4.973-2.694,7.51c-0.333,1.06-0.415,2.22-0.473,3.341
		c-0.101,1.942,1.179,3.575,3.046,4.043c2.043,0.512,5.307-0.681,6.56-2.397c0.886-1.214,0.213-3.222-1.262-3.571
		c-0.389-0.092-0.956,0.074-1.265,0.332c-0.179,0.149-0.078,0.742,0.031,1.094c0.095,0.306,0.379,0.553,0.688,0.974
		c-1.315,0.466-2.12,0.034-2.567-0.977c-0.585-1.32,0.081-2.906,1.337-3.47c2.607-1.17,6.015,1.06,5.895,3.995
		c-0.146,3.578-2.34,7.851-7.08,8.314c-1.365,0.133-1.868,0.912-2.035,2.05c-0.326,2.209,0.397,4.078,1.933,5.684
		c2.579,2.698,2.57,3.893,0.14,6.47c1.341,3.554,2.981,6.958,3.888,10.547c1.056,4.179,1.584,8.507,2.119,12.798
		c0.329,2.641-0.295,3.361-2.42,3.579c-11.477,1.182-22.971,2.134-34.518,1.401c-3.063-0.194-6.11-0.82-9.134-1.401
		c-1.947-0.374-2.524-1.425-2.176-3.305c1.632,0.075,3.268,0.221,4.905,0.226c13.539,0.038,27.079,0.051,40.618,0.061
		c0.437,0,0.874-0.118,1.217-0.167c-0.546-13.857-6.012-25.604-13.701-36.259c-1.953,1.061-3.389,2.423-4.934,2.562
		c-3.407,0.307-6.869,0.024-10.308-0.073c-1.546-0.044-2.484-0.97-3.012-2.376c-0.131-0.35-0.348-0.668-0.578-1.101
		c-9.415,8.948-13.038,20.132-13.677,32.562c-0.373-0.092-0.657-0.163-1.239-0.307C73.551,110.341,73.791,111.905,74.031,113.468z
		 M119.981,58.558c1.395-1.101,2.608-2.67,3.267-2.464c2.049,0.639,2.083-0.699,2.378-1.82c0.55-2.089,1.424-2.406,3.074-1.006
		c2.512,2.132,2.83,2.079,4.456-0.735c0.178-0.308,0.371-0.608,0.547-0.917c0.87-1.524,2.058-1.912,3.748-1.317
		c3.034,1.067,4.567,0.32,4.848-2.945c0.359-4.177,0.623-8.467,0.073-12.595c-1.061-7.963-5.104-14.766-9.88-21.042
		c-1.565-2.056-3.917-3.578-6.088-5.085c-1.487-1.032-3.276-1.27-5.088-0.414c-1.649,0.778-3.139,0.562-4.586-0.743
		c-0.839-0.757-2.01-1.371-3.116-1.562c-2.737-0.471-5.524-0.906-8.29-0.901c-3.21,0.007-6.338,0.741-8.715,2.724
		c0.748,1.154,1.436,2.216,2.118,3.269c1.023,0,2.208,0.057,3.382-0.03c0.431-0.032,0.844-0.39,1.251-0.626
		c0.653-0.379,1.422-1.208,1.905-1.062c0.581,0.175,1.062,1.119,1.313,1.827c0.25,0.705,0.163,1.529,0.236,2.462
		c1.577-1.048,2.868-1.873,4.124-2.749c1.184-0.825,1.892-0.36,2.261,0.83c0.25,0.807,0.339,1.665,0.506,2.53
		c4.474-2.375,4.513-2.365,5.817,1.564c1.134-0.156,2.294-0.396,3.463-0.457c1.576-0.082,2.578,1.076,1.805,2.125
		c-1.491,2.024,0.527,3.475,0.254,5.506c1.308-0.753,2.176-1.436,3.161-1.747c0.568-0.179,1.651,0.032,1.919,0.446
		c0.361,0.558,0.406,1.588,0.13,2.213c-0.269,0.608-1.114,0.961-1.816,1.512c2.096,1.646,2.904,3.556,2.898,5.703
		c-0.007,2.665-0.04,5.363-0.452,7.985c-0.745,4.751-2.999,8.691-6.711,11.239c-1.467-0.562-2.605-1.16-3.816-1.416
		c-1.244-0.263-2.559-0.192-3.886-0.27c-0.242-4.223-2.371-7.285-5.2-9.974c-0.428-0.407-1.148-0.817-1.185-1.271
		c-0.135-1.66-1.405-1.7-2.499-1.968c-2.292-0.561-4.476-0.322-6.478,1.04c-0.293,0.199-0.664,0.284-0.999,0.422
		c0.125-0.85,0.42-1.539,0.941-1.883c2.805-1.854,5.807-0.58,8.842-0.275c0-2.78,0-5.405,0-7.585
		c-5.165,1.784-10.294,3.775-15.563,5.275c-2.334,0.665-3.783,2.148-5.585,3.564c1.055,1.033,2.198,2.328,0.994,3.383
		c-0.767,0.672-2.442,0.308-3.439,0.387c-0.938,0.701-1.877,1.984-2.767,1.951c-2.094-0.077-1.023-2.379-1.97-3.732
		c-0.518,0.809-0.961,1.502-1.399,2.185c2.897,2.121,3.488,6.512,1.35,9.075c-0.685,0.821-1.939,1.378-1.323,2.779
		c0.447,1.015,0.814,2.137,1.517,2.954c2.043,2.375,4.762,3.878,7.788,4.35c6.133,0.958,12.318,0.834,18.474,0.018
		c2.458-0.326,4.303-1.447,5.248-3.944c0.262-0.692,1.365-1.573,1.983-1.502c0.884,0.101,1.805,0.875,2.477,1.584
		C118.569,56.362,119.234,57.517,119.981,58.558z M44.999,50.544c0.165,0.127,0.406,0.228,0.512,0.408
		c2.072,3.502,5.36,5.242,9.186,5.755c4.283,0.574,8.62,0.782,12.941,1.02c4.086,0.225,7.46-1.503,10.54-4.055
		c1.362-1.129,1.212-2.485,0.356-3.418c-2.35-2.563-2.184-5.367-0.88-8.094c0.816-1.708,0.996-3.32,0.942-5.103
		c-0.112-3.715-0.762-4.083-4.052-2.161c-0.512,0.299-0.977,0.681-1.498,0.959c-0.302,0.161-0.673,0.193-1.348,0.371
		c1.483-2.807,4.027-3.014,6.477-3.726c-0.633-2.932-0.041-6.075-2.475-8.864c-0.345,0.822-0.583,1.331-0.775,1.856
		c-0.901,2.471-2.304,4.59-4.625,5.895c-0.646,0.363-1.689,0.444-2.397,0.203c-3.244-1.103-5.35-3.612-7.324-6.258
		c-1.063-1.425-2.201-2.794-3.572-4.525c-0.324,4.734-2.774,7.73-5.589,10.549c-1.968,1.971-3.92,3.967-5.744,6.07
		c-1.553,1.791-2.872,3.76-1.636,6.402c-3.065,0.186-6.638-1.291-7.8,3.091c-0.531,2.002,0.071,3.966,1.538,4.933
		C40.095,53.378,42.055,53.034,44.999,50.544z M95.536,61.938c-0.042-0.208-0.083-0.416-0.125-0.625
		c-6.446,0.086-12.012-1.651-15.58-7.52c-4.208,4.49-9.604,5.323-15.367,5.819c0.73,1.336,1.539,2.437,2.469,3.426
		c1.212,1.288,2.654,2.379,3.752,3.751c1.402,1.751,2.602,3.67,3.815,5.565c2.277,3.556,5.06,3.559,7.263,0.143
		c2.311-3.584,5.158-6.579,9.426-7.989C92.751,63.991,94.093,62.813,95.536,61.938z M78.206,82.554c-2.121,0-3.881,0-5.966,0
		c0.647,1.218,1.139,2.081,1.574,2.973c1.119,2.293,0.385,5.01-1.633,6.507c-0.331,0.245-0.546,0.88-0.528,1.323
		c0.126,3.077,0.244,6.159,0.543,9.222c0.139,1.419,0.677,2.8,1.09,4.419C74.971,98.628,76.574,90.661,78.206,82.554z
		 M97.874,73.053c-0.124-0.195-0.248-0.389-0.373-0.584c0.438,0.701,0.795,1.474,1.336,2.084c0.654,0.738,1.391,1.467,2.237,1.945
		c0.452,0.256,1.337,0.169,1.782-0.129c0.314-0.21,0.349-1.054,0.277-1.582c-0.264-1.923-1.845-2.225-3.357-2.649
		c-0.465-0.13-0.84-0.58-1.256-0.884c0.504-0.188,0.997-0.418,1.516-0.545c0.271-0.066,0.617,0.146,0.875,0.063
		c0.682-0.219,1.465-0.396,1.945-0.861c0.237-0.23,0.092-1.308-0.227-1.558c-0.534-0.417-1.399-0.747-2.03-0.624
		c-0.891,0.174-1.741,0.725-2.524,1.241c-0.779,0.513-1.303,0.476-2.006-0.182c-0.626-0.585-1.433-1.101-2.249-1.329
		c-1.061-0.296-2.125,0.111-2.369,1.285c-0.25,1.2,0.543,1.868,1.708,2.019c0.794,0.103,1.598,0.13,2.397,0.19
		c0.052,0.143,0.104,0.286,0.156,0.429c-0.422,0.273-0.821,0.594-1.271,0.81c-1.009,0.485-2.125,0.794-3.047,1.402
		c-1.21,0.798-1.125,2.067,0.22,2.591c0.678,0.264,1.753,0.097,2.406-0.287C95.389,75.094,96.599,74.017,97.874,73.053z
		 M113.906,75.958c-2.475-1.207-4.815-2.348-7.414-3.615c0.27,1.351,0.193,2.958,0.889,4.089c2.287,3.72,4.873,7.255,7.294,10.895
		c0.464,0.697,0.928,1.495,1.725,0.824c0.461-0.389,0.592-1.361,0.57-2.061c-0.013-0.426-0.611-0.826-0.928-1.252
		C113.993,82.091,111.74,79.389,113.906,75.958z M105.947,71.928c-1.006-0.045-1.876-0.083-2.968-0.132
		c0.888,1.971,2.615,3.941,0.249,5.399c-2.815,1.734-4.286-1.011-6.027-2.508c-2.531,2.765-4.414,3.648-6.004,2.487
		c-2.025-1.477-1.26-3.379-0.099-5.263c-0.802,0-1.377,0-1.937,0c-1.061,4.549,1.001,7.43,5.13,7.229
		c2.132-0.104,4.275,0.048,6.409-0.035c0.794-0.031,1.626-0.297,2.353-0.639C105.686,77.227,105.448,74.632,105.947,71.928z
		 M97.286,67.818c1.655-0.54,3.512-1.146,5.112-1.668c-1.307-1.535-2.424-3.018-3.742-4.293c-0.397-0.384-1.605-0.519-2.005-0.207
		c-1.781,1.386-3.403,2.975-5.129,4.533C93.333,66.697,95.282,67.249,97.286,67.818z M122.865,30.737
		c0.285-0.002,0.57-0.003,0.855-0.005c0.189-1.175,0.377-2.35,0.576-3.585c1.421,0.724,2.828,1.442,4.235,2.159
		c0.11-0.163,0.219-0.326,0.329-0.489c-0.47-0.56-0.894-1.169-1.421-1.669c-1.021-0.966-0.957-1.747,0.176-2.584
		c0.707-0.522,1.291-1.21,2.207-2.09c-2.632-0.672-3.658,2.927-6.058,1.314c0-0.828,0.072-1.722-0.032-2.595
		c-0.048-0.409-0.434-0.777-0.667-1.164c-0.202,0.371-0.556,0.733-0.579,1.116c-0.075,1.224-0.028,2.456-0.028,3.825
		c-0.922,0-1.579-0.086-2.198,0.032c-0.376,0.071-0.692,0.456-1.035,0.7c0.351,0.229,0.677,0.583,1.059,0.662
		c0.778,0.162,1.587,0.176,2.346,0.248C122.717,28.136,122.791,29.437,122.865,30.737z M82.861,36.291
		c0.166,1.376,0.331,2.749,0.497,4.123c0.248,0.003,0.496,0.006,0.744,0.009c0.196-1.201,0.391-2.402,0.586-3.598
		c1.549,0.491,2.589,2.064,4.726,1.913c-0.446-0.568-0.639-0.844-0.862-1.092c-1.775-1.973-1.762-2.055,0.243-3.699
		c0.444-0.364,0.806-0.828,1.206-1.246c-0.134-0.186-0.268-0.372-0.403-0.558c-1.517,0.838-3.035,1.677-4.977,2.75
		c0-1.697,0.075-2.761-0.035-3.806c-0.047-0.446-0.48-0.851-0.737-1.275c-0.232,0.404-0.633,0.795-0.665,1.213
		c-0.091,1.207-0.032,2.425-0.032,3.651c-1.015,0-1.676-0.075-2.309,0.025c-0.446,0.071-0.854,0.379-1.279,0.581
		c0.374,0.269,0.715,0.67,1.131,0.778C81.375,36.237,82.104,36.222,82.861,36.291z M100.341,19.215
		c0.136-0.136,0.272-0.272,0.409-0.408c-0.714-0.89-1.444-1.768-2.139-2.673c-0.807-1.051-0.567-1.871,0.631-2.393
		c0.892-0.388,1.804-0.729,2.707-1.092c-0.032-0.209-0.064-0.418-0.096-0.627c-1.447,0.101-2.894,0.203-4.318,0.302
		c-0.681-0.953-0.067-2.675-1.974-2.93c0,1.267,0,2.414,0,3.45c-1.004,0.418-1.878,0.783-3.196,1.333
		c1.34,0.343,2.142,0.548,3.003,0.768c-0.508,1.527-0.935,2.808-1.361,4.089c0.315,0.237,0.63,0.474,0.945,0.711
		c0.552-1.111,1.105-2.222,1.657-3.333c0.193,0.191,0.385,0.381,0.578,0.572C98.238,17.728,99.289,18.472,100.341,19.215z
		 M61.773,89.075c1.325,0.422,2.184,0.696,3.043,0.97c0.077-0.165,0.153-0.33,0.23-0.495c-0.692-0.468-1.384-0.937-2.314-1.567
		c1.104-0.182,1.906-0.315,2.708-0.447c-0.002-0.119-0.004-0.238-0.006-0.356c-0.72-0.212-1.441-0.424-2.161-0.636
		c0.034-0.092,0.069-0.183,0.103-0.275c0.792-0.084,1.584-0.169,2.376-0.253c-2.996-1.363-2.996-1.363-1.228-3.318
		c-1.079,0.164-1.731,0.142-2.277,0.373c-0.98,0.414-1.921,0.94-2.832,1.495c-0.859,0.523-1.884,1.187-1.098,2.34
		c0.926,1.359,2.065,2.583,3.198,3.785c0.357,0.379,0.99,0.5,1.497,0.739c0.072-0.125,0.144-0.25,0.216-0.374
		C62.843,90.532,62.459,90.008,61.773,89.075z M118.777,17.415c-0.63-1.376-1.095-2.388-1.559-3.401
		c-0.205,0.076-0.41,0.152-0.616,0.228c0.111,1.079,0.223,2.158,0.329,3.183c-1.333,0.52-2.595,1.012-3.856,1.504
		c0.065,0.189,0.131,0.377,0.196,0.566c1.308,0,2.616,0,3.909,0c-0.133,1.645-1.769,2.823-0.833,4.945
		c0.429-0.86,0.672-1.402,0.962-1.918c0.804-1.434,1.366-1.515,2.563-0.377c0.478,0.455,0.935,0.932,1.402,1.399
		c0.208-0.164,0.416-0.329,0.623-0.493c-0.55-0.774-1.118-1.535-1.642-2.326c-0.298-0.45-0.73-0.958-0.708-1.421
		c0.014-0.287,0.749-0.57,1.188-0.801c0.904-0.477,1.826-0.918,2.74-1.374c-0.08-0.178-0.159-0.357-0.239-0.535
		C121.707,16.876,120.176,17.157,118.777,17.415z M110.214,13.683c-1.792,0.536-3.027,0.904-4.256,1.272
		c-0.273-1.715-0.489-3.07-0.704-4.425c-0.296,0.018-0.592,0.037-0.887,0.055c-0.092,1.582-0.184,3.163-0.281,4.826
		c-1.137,0.072-2.238,0.142-3.339,0.211c-0.014,0.213-0.028,0.427-0.042,0.64c1.005,0.182,2.009,0.363,3.263,0.59
		c0,1.448,0,2.864,0,4.279c0.207,0.035,0.415,0.07,0.622,0.105c0.231-0.717,0.663-1.438,0.65-2.151
		c-0.026-1.417,0.674-2.18,1.837-2.725c0.695-0.325,1.427-0.616,2.036-1.065C109.503,15.008,109.701,14.46,110.214,13.683z
		 M115.38,16.153c-0.096-0.193-0.192-0.387-0.288-0.58c-1.763,0.915-2.406,0.355-2.513-1.385c-0.05-0.817-0.645-1.602-0.993-2.401
		c-0.199,0.069-0.398,0.138-0.597,0.207c0,1.176-0.054,2.355,0.016,3.527c0.064,1.077-0.332,1.507-1.421,1.465
		c-0.65-0.025-1.308,0.164-1.962,0.257c0.019,0.208,0.038,0.417,0.057,0.625c1.064,0.099,2.128,0.199,3.302,0.308
		c0,0.631-0.081,1.172,0.018,1.678c0.173,0.883,0.457,1.745,0.695,2.615c0.176-0.859,0.544-1.731,0.488-2.574
		c-0.114-1.735,0.151-2.938,2.274-2.879C114.755,17.024,115.071,16.455,115.38,16.153z M85.038,77.409
		c1.367-1.271,2.961-1.911,3.164-3.974c0.212-2.162-2.177-1.853-2.721-3.883c-0.931,1.494-2.109,2.538-2.089,3.559
		C83.418,74.471,84.377,75.812,85.038,77.409z M77.946,45.356c0.301,1.045,0.454,2.128,0.922,3.053
		c0.547,1.082,1.473,1.074,2.003-0.022c0.953-1.969,0.924-4.042,0.009-6.019c-0.543-1.174-1.487-1.15-2.071,0.064
		C78.383,43.315,78.235,44.333,77.946,45.356z M94.099,10.171c-2.957,2.195-5.412,4.58-7.089,8.181
		c2.441-0.657,4.546-1.223,6.651-1.789c0.003-0.157,0.006-0.315,0.008-0.472c-0.8-0.232-1.599-0.464-2.473-0.717
		c-0.38-2.417,0.945-3.394,3.202-3.579C94.29,11.21,94.209,10.77,94.099,10.171z M90.261,70.915c0.039-0.21,0.078-0.42,0.117-0.629
		c0.202-0.842,0.473-1.675,0.588-2.529c0.134-0.996-0.264-1.799-1.37-1.233c-1.313,0.672-2.481,1.625-3.713,2.457
		c0.032,0.27,0.063,0.54,0.095,0.81C87.405,70.166,88.833,70.541,90.261,70.915z M62.305,66.898
		c-1.567,2.777-0.939,5.42-1.145,8.165c0.844-0.05,1.448-0.085,2.36-0.139C62.836,72.268,63.807,69.628,62.305,66.898z
		 M57.496,63.501c-0.19,0.126-0.38,0.253-0.569,0.379c0.218,1.383,0.436,2.766,0.654,4.149c1.239-0.688,2.48-1.373,3.711-2.074
		c0.066-0.038,0.052-0.216,0.141-0.644C60.162,64.727,58.829,64.114,57.496,63.501z M58.359,59.848
		c-0.15,0.108-0.3,0.217-0.45,0.325c0.206,0.527,0.265,1.312,0.646,1.528c0.889,0.503,1.934,0.996,2.913,0.991
		c0.817-0.005,1.629-0.724,2.444-1.127c-0.437-0.773-0.875-1.546-1.497-2.645C61.117,61.121,59.786,60.849,58.359,59.848z
		 M103.864,70.539c1.229-0.296,3.003,0.801,3.104-1.538c0.072-1.675-0.881-2.964-1.966-2.832
		C103.557,66.344,103.32,67.172,103.864,70.539z M66.305,63.889c-1.365,0.68-2.497,1.245-3.629,1.809
		c0.002,0.202,0.005,0.405,0.007,0.607c1.078,0.654,2.157,1.309,3.622,2.198C66.305,66.68,66.305,65.483,66.305,63.889z
		 M99.676,61.835c1.311,0.958,2.622,1.917,3.932,2.875c0.105-0.138,0.209-0.275,0.314-0.413
		C102.717,63.2,102.746,60.507,99.676,61.835z M46.256,12.666c0.074-0.166,0.147-0.332,0.221-0.498
		c-0.571-0.461-1.085-1.056-1.735-1.333c-0.404-0.172-1.013,0.137-1.53,0.23c0.279,0.45,0.461,1.13,0.859,1.297
		C44.726,12.639,45.521,12.583,46.256,12.666z M52.496,8.739c-0.259-0.2-0.517-0.4-0.776-0.6c-0.724,1.047-1.448,2.095-2.173,3.142
		c0.204,0.151,0.408,0.301,0.612,0.452C50.938,10.735,51.717,9.737,52.496,8.739z"/>
	<path fill="#FF7BAC" d="M44.325,129.448c-3.242-1.234-4.786-4.096-3.203-6.446c0.186,0.749,0.208,1.332,0.466,1.779
		c0.575,0.996,1.112,2.103,1.954,2.829c0.897,0.773,1.772,0.704,2.763-0.517c1.312-1.617,3.058-2.97,4.841-4.078
		c0.761-0.473,2.085-0.041,3.153-0.02c-0.043,1.119,0.251,2.399-0.192,3.327c-1.272,2.667-3.926,3.179-6.544,3.671
		c-0.699,0.131-1.527,0.435-1.964,0.944c-1.383,1.608-1.237,2.095,0.593,3.177c1.74,1.028,2.591,3.229,2.171,5.617
		c-0.475,2.703-2.273,4.661-4.78,4.843c0.321-0.529,0.46-1.099,0.771-1.217c2.133-0.81,2.636-2.678,2.82-4.562
		c0.195-1.993-1.122-3.254-2.836-4.293c-1.659,2.546-3.78,4.467-6.75,5.205c-2.618,0.65-4.337-0.492-4.79-3.097
		c-0.362-2.079,0.385-3.599,2.457-4.094c1.7-0.407,3.524-0.495,5.279-0.416C43.249,132.22,43.244,132.331,44.325,129.448z
		 M36.25,138.554c2.997-0.351,4.642-1.904,5.952-3.862c0.143-0.214-0.232-1.097-0.564-1.255c-1.804-0.861-5.168-0.231-6.415,1.3
		c-0.525,0.644-0.977,1.788-0.755,2.475C34.685,137.878,35.809,138.249,36.25,138.554z M47.116,128.365
		c2.623,0.265,4.549-0.369,5.924-2.229c0.33-0.447,0.275-1.179,0.396-1.78c-0.6-0.092-1.254-0.384-1.791-0.241
		C49.535,124.68,48.152,126.103,47.116,128.365z"/>
	<path fill="#FF7BAC" d="M19.39,60.847c0.95-1.372,1.506-2.659,2.468-3.458c1.748-1.451,4.041-0.635,4.246,1.633
		c0.268,2.964-0.016,5.978-0.064,9.135c-3.324,0.058-6.13-0.098-8.773-1.283c-1.286-0.577-2.419-1.382-2.148-3.082
		c0.232-1.455,1.834-2.835,3.395-2.94C18.977,60.821,19.444,60.847,19.39,60.847z"/>
	<path fill="#FF7BAC" d="M85.579,130.616c0,1.489,0,2.879,0,4.346c1.623,0.123,3.323-0.61,4.604,0.493
		c-0.03,0.211-0.059,0.422-0.089,0.634c-1.45,0-2.9,0-4.405,0c-0.188,2.43-0.316,4.665-0.545,6.889
		c-0.273,2.652-1.428,4.089-3.029,3.922c-1.278-0.133-1.851-1.483-1.806-4.161c0.043-2.565,0.429-4.891,2.818-6.537
		c0.593-0.409,0.713-1.764,0.738-2.693c0.104-3.812-0.376-4.283-4.254-3.908c-0.764,0.074-1.66,0.826-2.074,1.518
		c-0.175,0.292,0.707,1.264,1.18,1.871c0.181,0.233,0.561,0.311,0.97,0.521c-1.699,0.468-3.242-0.26-3.803-1.717
		c-0.563-1.462,0.177-2.555,1.388-3.054c1.137-0.468,2.549-0.832,3.699-0.585c2.135,0.459,4.028,0.528,5.983-0.639
		c0.925-0.552,2.13-0.795,3.226-0.856c1.338-0.075,2.589,0.578,2.731,2.016c0.144,1.461-1.148,2.073-2.339,2.204
		c-1.275,0.141-2.593-0.107-3.892-0.187C86.341,130.671,86.003,130.645,85.579,130.616z M84.408,137.586
		c-0.254-0.056-0.508-0.111-0.762-0.167c-1.796,1.393-2.399,3.383-2.377,5.565c0.006,0.624,0.628,1.242,0.968,1.863
		c0.492-0.459,1.313-0.853,1.418-1.388C84.036,141.527,84.177,139.547,84.408,137.586z M86.619,129.491
		c1.303,0.112,2.604,0.261,3.909,0.303c0.246,0.008,0.746-0.464,0.711-0.62c-0.074-0.325-0.378-0.763-0.673-0.845
		C89.165,127.942,87.816,128.055,86.619,129.491z"/>
	<path fill="#FF7BAC" d="M37.079,76.172c-2.656,0.069-4.874,0.234-7.081,0.143c-1.249-0.051-2.552-0.499-2.596-2.132
		c-0.041-1.537,0.789-2.564,2.201-3.11c0.323-0.125,0.689-0.139,1.074-0.211c0.075-0.699-0.097-1.599,0.274-2.023
		c0.723-0.824,1.695-1.77,2.672-1.908c0.638-0.09,1.903,1.029,2.123,1.82C36.373,70.999,36.607,73.356,37.079,76.172z"/>
	<path fill="#FF7BAC" d="M57.748,137.778c0.184,2.829-1.522,4.708-3.41,6.353c-1.651,1.438-4.616-0.002-4.787-2.328
		c-0.083-1.126,0.166-2.418,0.688-3.411c0.74-1.407,1.688-2.837,2.902-3.815c0.777-0.626,2.239-0.712,3.307-0.529
		c0.495,0.084,0.849,1.361,1.139,2.144C57.766,136.674,57.703,137.246,57.748,137.778z M51.607,137.917
		c-0.363,1.002-0.76,1.8-0.934,2.644c-0.399,1.927,0.862,2.946,2.746,2.292c2.054-0.714,3.548-3.877,2.772-6.072
		c-0.196-0.553-0.769-0.973-1.169-1.454c-0.473,0.4-1.155,0.717-1.36,1.225c-0.193,0.479-0.045,1.268,0.256,1.718
		c0.236,0.353,0.935,0.396,1.429,0.577c-0.275,0.315-0.549,0.631-0.824,0.946C53.653,139.233,52.783,138.673,51.607,137.917z"/>
	<path fill="#FF7BAC" d="M98.439,140.77c-0.092,3.003-1.131,4.465-3.594,4.983c-1.677,0.353-2.944-0.382-3.368-1.85
		c-0.512-1.774-0.842-3.712,0.688-5.333c0.246-0.26,0.391-0.727,0.384-1.094c-0.024-1.424,0.622-2.241,2.026-2.429
		c1.552-0.208,2.728,0.369,3.165,1.903C98.093,138.19,98.215,139.495,98.439,140.77z M92.675,139.661
		c-0.181,0.357-0.706,0.911-0.593,1.257c0.382,1.165,0.827,2.397,1.602,3.299c0.269,0.313,1.761-0.015,2.356-0.482
		c0.99-0.776,1.267-5.612,0.48-6.635c-0.339-0.44-1.046-0.856-1.556-0.823c-0.408,0.026-1.008,0.71-1.082,1.173
		c-0.065,0.408,0.41,0.979,0.771,1.361c0.473,0.499,1.069,0.883,1.612,1.316c-0.12,0.224-0.24,0.449-0.361,0.673
		C94.879,140.44,93.855,140.078,92.675,139.661z"/>
	<path fill="#FF7BAC" d="M72.917,143.685c0.361,1.761-0.506,2.379-1.579,2.687c-1.576,0.453-3.099,0.248-4.215-1.082
		c-0.398-0.475-0.651-1.146-0.771-1.767c-0.538-2.776,2.579-6.948,5.412-7.088c0.708-0.035,2.007,0.625,2.066,1.089
		c0.117,0.918-0.192,2.139-0.791,2.831c-0.59,0.681-1.747,0.887-2.675,1.253c-0.491,0.193-1.113,0.159-1.514,0.45
		c-0.478,0.348-1.018,0.907-1.078,1.427c-0.04,0.343,0.651,0.932,1.133,1.143C70.309,145.245,71.684,145.202,72.917,143.685z
		 M68.48,140.208c0.165,0.247,0.331,0.495,0.496,0.742c1.12-0.588,2.273-1.124,3.337-1.801c0.257-0.163,0.216-0.794,0.312-1.21
		c-0.466-0.068-1.095-0.36-1.367-0.162C70.267,138.498,69.396,139.384,68.48,140.208z"/>
	<path fill="#FF7BAC" d="M126.586,135.569c-0.147,0.515-0.144,1.175-0.472,1.532c-1.165,1.271-2.736,1.259-4.296,1.05
		c-1.298-0.174-1.828-1.106-2.194-2.263c-1.026-3.245,0.096-6.222,2.935-7.484c0.992-0.44,2.112-0.802,2.86,0.349
		c0.739,1.135,0.542,2.352-0.465,3.215c-0.694,0.594-1.676,0.838-2.443,1.364c-0.711,0.488-1.307,1.144-1.954,1.725
		c0.876,0.678,1.706,1.811,2.642,1.908C124.175,137.065,125.253,136.165,126.586,135.569z M120.559,132.1
		c0.239,0.243,0.478,0.487,0.718,0.73c1.029-0.728,2.087-1.42,3.061-2.215c0.199-0.162,0.235-0.835,0.065-1.052
		c-0.174-0.221-0.86-0.361-1.035-0.208C122.384,130.215,121.486,131.175,120.559,132.1z"/>
	<path fill="#FF7BAC" d="M111.459,139.659c-0.258,0.618-0.373,1.621-0.801,1.78c-1.206,0.448-2.632,0.934-3.797,0.662
		c-0.885-0.207-1.832-1.437-2.173-2.414c-0.704-2.016,0.747-5.357,2.512-6.632c0.997-0.72,1.984-0.904,2.818,0.134
		c0.816,1.016,1.026,2.232,0.017,3.2c-0.653,0.627-1.672,0.855-2.408,1.418c-0.666,0.508-1.337,1.152-1.669,1.888
		c-0.141,0.314,0.522,1.403,0.916,1.459c0.843,0.12,1.798-0.078,2.613-0.39c0.556-0.213,0.955-0.839,1.423-1.281
		C111.094,139.541,111.277,139.6,111.459,139.659z M105.687,136.768c0.255,0.25,0.511,0.501,0.766,0.751
		c0.906-0.732,1.858-1.416,2.686-2.227c0.212-0.208,0.198-0.975-0.014-1.196c-0.207-0.216-0.987-0.244-1.19-0.037
		C107.118,134.895,106.426,135.854,105.687,136.768z"/>
	<path fill="#FF7BAC" d="M61.158,144.428c0.823-1.165,1.843-2.243,2.415-3.521c0.584-1.305,0.727-2.806,1.185-4.734
		c0.431,0.706,0.749,0.986,0.757,1.275c0.091,3.396-1.204,6.139-4.053,8.037c-1.271,0.846-2.441,0.512-2.523-0.921
		c-0.143-2.509,0.173-5.045,0.333-7.568c0.008-0.122,0.358-0.222,0.986-0.584c0,2.781,0,5.257,0,7.732
		C60.558,144.239,60.858,144.334,61.158,144.428z"/>
	<path fill="#FF7BAC" d="M112.294,132.527c0.202,1.173,0.361,2.356,0.619,3.517c0.284,1.279,0.232,3.07,1.886,3.119
		c0.509,0.015,1.311-1.993,1.562-3.164c0.281-1.305,0.055-2.713,0.123-4.073c0.017-0.344,0.313-0.674,0.48-1.011
		c0.265,0.253,0.77,0.517,0.758,0.756c-0.126,2.518,0.049,5.141-0.628,7.516c-0.679,2.384-2.818,2.424-4.222,0.316
		c-1.402-2.105-1.464-4.473-1.297-6.852C111.815,132.61,112.054,132.568,112.294,132.527z"/>
	<path fill="#FF7BAC" d="M126.461,128.898c0.698-0.205,1.397-0.41,2.191-0.643c0.94-2.198,1.358-2.516,3.319-2.18
		c-2.899,2.687-1.194,5.98-1.447,9.021c-0.046,0.55-0.194,1.091-0.295,1.637c-0.236-0.019-0.473-0.037-0.71-0.056
		c-0.148-1.427-0.416-2.855-0.413-4.282c0.003-1.791-0.086-3.32-2.856-2.701C126.32,129.428,126.39,129.163,126.461,128.898z"/>
	<path fill="#FF7BAC" d="M104.193,133.983c-0.095,0.264-0.124,0.698-0.297,0.767c-2.089,0.83-1.895,2.6-1.875,4.331
		c0.015,1.3,0.018,2.606-0.091,3.9c-0.039,0.463-0.422,0.898-0.649,1.345c-0.179-0.425-0.472-0.839-0.512-1.276
		c-0.092-0.999-0.127-2.013-0.063-3.013c0.113-1.769,0.291-3.513-2.77-2.964c0.103-0.244,0.207-0.489,0.31-0.733
		c1.009-0.19,2.135-0.163,2.994-0.628c0.932-0.504,1.616-1.466,2.408-2.229C103.83,133.65,104.011,133.816,104.193,133.983z"/>
	<path fill="#FF7BAC" d="M106.165,46.967c0.018,1.892-1.176,3.47-2.612,3.454c-1.373-0.016-2.575-1.684-2.559-3.553
		c0.015-1.799,1.179-3.311,2.569-3.337C105.015,43.503,106.147,44.998,106.165,46.967z"/>
	<path fill="#FF7BAC" d="M89.063,45.73c0.031,1.924-1.106,3.431-2.593,3.438c-1.51,0.007-2.625-1.438-2.622-3.398
		c0.003-1.889,1.22-3.433,2.68-3.4C87.893,42.401,89.034,43.914,89.063,45.73z"/>
	<path fill="#FF7BAC" d="M97.601,58.393c-0.586,0.218-1.203,0.663-1.748,0.587c-0.484-0.068-0.886-0.715-1.324-1.106
		c0.553-0.328,1.088-0.87,1.663-0.917c0.458-0.037,0.965,0.531,1.45,0.83C97.629,57.988,97.615,58.191,97.601,58.393z"/>
	<path fill="#FF7BAC" d="M57.434,44.854c-0.192,0.653-0.231,1.515-0.665,2.066c-0.495,0.627-1.358,1.366-2.031,1.338
		c-0.669-0.028-1.638-0.833-1.869-1.506c-0.363-1.058-0.517-2.384-0.191-3.419c0.261-0.829,1.344-1.897,2.101-1.928
		c0.724-0.03,1.57,1.076,2.218,1.81C57.306,43.564,57.278,44.209,57.434,44.854z"/>
	<path fill="#FF7BAC" d="M69.091,44.631c0.638-1.049,1.164-2.199,1.975-3.089c0.278-0.305,1.692-0.184,1.862,0.132
		c0.635,1.183,1.018,2.514,1.384,3.822c0.092,0.327-0.125,0.886-0.39,1.139c-0.668,0.637-1.481,1.647-2.168,1.596
		c-0.733-0.055-1.469-1.093-2.042-1.827c-0.286-0.367-0.21-1.015-0.298-1.535C69.306,44.789,69.199,44.71,69.091,44.631z"/>
	<path fill="#FF7BAC" d="M51.198,35.73c0.021-0.398-0.114-0.916,0.087-1.175c1.93-2.49,7.906-2.554,9.679,0.661
		c-3.4-1.344-6.679-3.329-9.298,0.842C51.51,35.949,51.354,35.84,51.198,35.73z"/>
	<path fill="#FF7BAC" d="M40.169,48.627c0.876-1.147,3.07-1.799,3.883-1.31c0.2,0.12,0.439,0.535,0.371,0.668
		c-0.136,0.267-0.46,0.597-0.725,0.613C42.61,48.666,41.513,48.627,40.169,48.627z"/>
	<path fill="#FF7BAC" d="M69.72,55.573c-1.078,0-2.155,0-3.427,0c1.062-1.751,2.099-1.823,3.477-0.548
		C69.753,55.208,69.736,55.39,69.72,55.573z"/>
</g>
</svg>
